<svg xmlns="http://www.w3.org/2000/svg" xmlns:xlink="http://www.w3.org/1999/xlink" xmlns:lucid="lucid" width="3922" height="2362"><g transform="translate(2481.0000000016735 401.0000000010054)" lucid:page-tab-id="0_0"><path d="M-8000-5000H9000v8500H-8000z" fill="#fff"/><path d="M-2480-394a6 6 0 0 1 6-6h3908a6 6 0 0 1 6 6v2348a6 6 0 0 1-6 6h-3908a6 6 0 0 1-6-6z" stroke="#282c33" stroke-width="2" fill="#fff"/><path d="M440-50a10 10 0 0 1 10-10h461.8a10 10 0 0 1 10 10v560a10 10 0 0 1-10 10H450a10 10 0 0 1-10-10z" fill="#fff"/><path d="M440-50a10 10 0 0 1 10-10h461.8a10 10 0 0 1 10 10v48H440z" fill="#00c2a8"/><path d="M440-2h481.8v59H440z" fill="#fff"/><path d="M440 56h481.8v59H440z" fill="#fff"/><path d="M440 114h481.8v59H440z" fill="#fff"/><path d="M440 172h481.8v59H440z" fill="#fff"/><path d="M440 230h481.8v59H440z" fill="#fff"/><path d="M440 288h481.8v59H440z" fill="#fff"/><path d="M440 346h481.8v59H440z" fill="#fff"/><path d="M440 404h481.8v59H440z" fill="#fff"/><path d="M440 462h481.8v48a10 10 0 0 1-10 10H450a10 10 0 0 1-10-10z" fill="#fff"/><path d="M440.5-2h480.8-480.8zM440-50a10 10 0 0 1 10-10h461.8a10 10 0 0 1 10 10v560a10 10 0 0 1-10 10H450a10 10 0 0 1-10-10zM786.96-1.5v521z" stroke="#282c33" fill="none"/><use xlink:href="#a" transform="matrix(1,0,0,1,450,-60) translate(0 43.55078125)"/><use xlink:href="#b" transform="matrix(1,0,0,1,445,0.5) translate(0 41.05078125)"/><use xlink:href="#c" transform="matrix(1,0,0,1,791.9577765408058,0.5) translate(0 41.05078125)"/><use xlink:href="#d" transform="matrix(1,0,0,1,445,58.5) translate(0 41.05078125)"/><use xlink:href="#e" transform="matrix(1,0,0,1,445,116.5) translate(0 41.05078125)"/><use xlink:href="#f" transform="matrix(1,0,0,1,445,174.5) translate(0 41.05078125)"/><use xlink:href="#g" transform="matrix(1,0,0,1,445,232.5) translate(0 41.05078125)"/><use xlink:href="#h" transform="matrix(1,0,0,1,445,290.5) translate(0 41.05078125)"/><use xlink:href="#i" transform="matrix(1,0,0,1,445,348.5) translate(0 41.05078125)"/><use xlink:href="#j" transform="matrix(1,0,0,1,445,406.5) translate(0 41.05078125)"/><use xlink:href="#k" transform="matrix(1,0,0,1,445,464.5) translate(0 41.05078125)"/><path d="M-2080-50a10 10 0 0 1 10-10h480a10 10 0 0 1 10 10v618a10 10 0 0 1-10 10h-480a10 10 0 0 1-10-10z" fill="#fff"/><path d="M-2080-50a10 10 0 0 1 10-10h480a10 10 0 0 1 10 10v48h-500z" fill="#00c2a8"/><path d="M-2080-2h500v59h-500z" fill="#fff"/><path d="M-2080 56h500v59h-500z" fill="#fff"/><path d="M-2080 114h500v59h-500z" fill="#fff"/><path d="M-2080 172h500v59h-500z" fill="#fff"/><path d="M-2080 230h500v59h-500z" fill="#fff"/><path d="M-2080 288h500v59h-500z" fill="#fff"/><path d="M-2080 346h500v59h-500z" fill="#fff"/><path d="M-2080 404h500v59h-500z" fill="#fff"/><path d="M-2080 462h500v59h-500z" fill="#fff"/><path d="M-2080 520h500v48a10 10 0 0 1-10 10h-480a10 10 0 0 1-10-10z" fill="#fff"/><path d="M-2079.5-2h499-499zM-2080-50a10 10 0 0 1 10-10h480a10 10 0 0 1 10 10v618a10 10 0 0 1-10 10h-480a10 10 0 0 1-10-10zM-1720.6-1.5v579z" stroke="#282c33" fill="none"/><use xlink:href="#l" transform="matrix(1,0,0,1,-2070,-60) translate(0 43.55078125)"/><use xlink:href="#m" transform="matrix(1,0,0,1,-2075,0.5) translate(0 41.05078125)"/><use xlink:href="#c" transform="matrix(1,0,0,1,-1715.6021291923935,0.5) translate(0 41.05078125)"/><use xlink:href="#n" transform="matrix(1,0,0,1,-2075,58.5) translate(0 41.05078125)"/><use xlink:href="#o" transform="matrix(1,0,0,1,-2075,116.5) translate(0 41.05078125)"/><use xlink:href="#p" transform="matrix(1,0,0,1,-2075,174.5) translate(0 41.05078125)"/><use xlink:href="#q" transform="matrix(1,0,0,1,-2075,232.5) translate(0 41.05078125)"/><use xlink:href="#r" transform="matrix(1,0,0,1,-2075,290.5) translate(0 41.05078125)"/><use xlink:href="#s" transform="matrix(1,0,0,1,-2075,348.5) translate(0 41.05078125)"/><use xlink:href="#t" transform="matrix(1,0,0,1,-2075,406.5) translate(0 41.05078125)"/><use xlink:href="#u" transform="matrix(1,0,0,1,-2075,464.5) translate(0 41.05078125)"/><use xlink:href="#v" transform="matrix(1,0,0,1,-2075,522.5) translate(0 41.05078125)"/><path d="M-420-50a10 10 0 0 1 10-10H10a10 10 0 0 1 10 10v328a10 10 0 0 1-10 10h-420a10 10 0 0 1-10-10z" fill="#fff"/><path d="M-420-50a10 10 0 0 1 10-10H10a10 10 0 0 1 10 10v48h-440z" fill="#00c2a8"/><path d="M-420-2H20v59h-440z" fill="#fff"/><path d="M-420 56H20v59h-440z" fill="#fff"/><path d="M-420 114H20v59h-440z" fill="#fff"/><path d="M-420 172H20v59h-440z" fill="#fff"/><path d="M-420 230H20v48a10 10 0 0 1-10 10h-420a10 10 0 0 1-10-10z" fill="#fff"/><path d="M-419.5-2h439-439zM-420-50a10 10 0 0 1 10-10H10a10 10 0 0 1 10 10v328a10 10 0 0 1-10 10h-420a10 10 0 0 1-10-10zM-102.87-1.5v289z" stroke="#282c33" fill="none"/><use xlink:href="#w" transform="matrix(1,0,0,1,-410,-60) translate(0 43.55078125)"/><use xlink:href="#x" transform="matrix(1,0,0,1,-415,0.5) translate(0 41.05078125)"/><use xlink:href="#c" transform="matrix(1,0,0,1,-97.86962135513568,0.5) translate(0 41.05078125)"/><use xlink:href="#y" transform="matrix(1,0,0,1,-415,58.5) translate(0 41.05078125)"/><use xlink:href="#z" transform="matrix(1,0,0,1,-415,116.5) translate(0 41.05078125)"/><use xlink:href="#A" transform="matrix(1,0,0,1,-415,174.5) translate(0 41.05078125)"/><use xlink:href="#B" transform="matrix(1,0,0,1,-415,232.5) translate(0 41.05078125)"/><path d="M-2260 940.73a10 10 0 0 1 10-10h480a10 10 0 0 1 10 10v676a10 10 0 0 1-10 10h-480a10 10 0 0 1-10-10z" fill="#fff"/><path d="M-2260 940.73a10 10 0 0 1 10-10h480a10 10 0 0 1 10 10v48h-500z" fill="#9391ff"/><path d="M-2260 988.73h500v59h-500z" fill="#fff"/><path d="M-2260 1046.73h500v59h-500z" fill="#fff"/><path d="M-2260 1104.73h500v59h-500z" fill="#fff"/><path d="M-2260 1162.73h500v59h-500z" fill="#fff"/><path d="M-2260 1220.73h500v59h-500z" fill="#fff"/><path d="M-2260 1278.73h500v59h-500z" fill="#fff"/><path d="M-2260 1336.73h500v59h-500z" fill="#fff"/><path d="M-2260 1394.73h500v59h-500z" fill="#fff"/><path d="M-2260 1452.73h500v59h-500z" fill="#fff"/><path d="M-2260 1510.73h500v59h-500z" fill="#fff"/><path d="M-2260 1568.73h500v48a10 10 0 0 1-10 10h-480a10 10 0 0 1-10-10z" fill="#fff"/><path d="M-2259.5 988.73h499-499zM-2260 940.73a10 10 0 0 1 10-10h480a10 10 0 0 1 10 10v676a10 10 0 0 1-10 10h-480a10 10 0 0 1-10-10zM-1890.23 989.23v637z" stroke="#282c33" fill="none"/><use xlink:href="#C" transform="matrix(1,0,0,1,-2250,930.7339498297217) translate(0 43.55078125)"/><use xlink:href="#D" transform="matrix(1,0,0,1,-2255,991.2339498297217) translate(0 41.05078125)"/><use xlink:href="#c" transform="matrix(1,0,0,1,-1885.226134624365,991.2339498297217) translate(0 41.05078125)"/><use xlink:href="#E" transform="matrix(1,0,0,1,-2255,1049.2339498297217) translate(0 41.05078125)"/><use xlink:href="#F" transform="matrix(1,0,0,1,-2255,1107.2339498297217) translate(0 41.05078125)"/><use xlink:href="#G" transform="matrix(1,0,0,1,-2255,1165.2339498297217) translate(0 41.05078125)"/><use xlink:href="#m" transform="matrix(1,0,0,1,-2255,1223.2339498297217) translate(0 41.05078125)"/><use xlink:href="#H" transform="matrix(1,0,0,1,-2255,1281.2339498297217) translate(0 41.05078125)"/><use xlink:href="#I" transform="matrix(1,0,0,1,-2255,1339.2339498297217) translate(0 41.05078125)"/><use xlink:href="#J" transform="matrix(1,0,0,1,-2255,1397.2339498297217) translate(0 41.05078125)"/><use xlink:href="#K" transform="matrix(1,0,0,1,-2255,1455.2339498297217) translate(0 41.05078125)"/><use xlink:href="#L" transform="matrix(1,0,0,1,-2255,1513.2339498297217) translate(0 41.05078125)"/><use xlink:href="#M" transform="matrix(1,0,0,1,-2255,1571.2339498297217) translate(0 41.05078125)"/><path d="M-1559.5 70.32h14a6 6 0 0 1 6 6v1051.4a6 6 0 0 0 6 6h273.68M-1579.5 70.32h20m0 10v-20M-1241.45 1133.73h-20m20-10l-20 10m20 10l-20-10M-731.8 68H-576a6 6 0 0 1 6 6v1111.73a6 6 0 0 1-6 6h-105.18M-751.8 68h20m0 10V58M-699.55 1191.73h20m-20 10l20-10m-20-10l20 10" stroke="#3a414a" stroke-width="2" fill="none"/><path d="M800 1670a10 10 0 0 1 10-10h460a10 10 0 0 1 10 10v96a10 10 0 0 1-10 10H810a10 10 0 0 1-10-10z" fill="#fff"/><path d="M800 1670a10 10 0 0 1 10-10h460a10 10 0 0 1 10 10v48H800z" fill="#ced4db"/><path d="M800 1718h480v48a10 10 0 0 1-10 10H810a10 10 0 0 1-10-10z" fill="#fff"/><path d="M800.5 1718h479-479zM800 1670a10 10 0 0 1 10-10h460a10 10 0 0 1 10 10v96a10 10 0 0 1-10 10H810a10 10 0 0 1-10-10zM1102.72 1718.5v57z" stroke="#282c33" fill="none"/><use xlink:href="#N" transform="matrix(1,0,0,1,810,1660) translate(0 43.55078125)"/><use xlink:href="#O" transform="matrix(1,0,0,1,805,1720.5) translate(0 41.05078125)"/><use xlink:href="#c" transform="matrix(1,0,0,1,1107.7211006299483,1720.5) translate(0 41.05078125)"/><path d="M-2100.5 70.32h-194a6 6 0 0 0-6 6v1167.45a6 6 0 0 0 6 6h14.6M-2080.5 70.32h-20m0-10v20M-2260.72 1249.77h-20m20-10l-20 10m20 10l-20-10" stroke="#3a414a" fill="none"/><path d="M419.5 69.27h-14a6 6 0 0 0-6 6V844a6 6 0 0 1-6 6H-1454a6 6 0 0 0-6 6v503.63a6 6 0 0 1-6 6h-274.68M439.5 69.27h-20m0-10v20M-1759.05 1365.63h20m-20 10l20-10m-20-10l20 10" stroke="#3a414a" stroke-width="2" fill="none"/><path d="M-440.5 26.8h-214a6 6 0 0 0-6 6V884a6 6 0 0 1-6 6h-628a6 6 0 0 0-6 6v521.56a6 6 0 0 1-6 6h-434.18M-420.5 26.8h-20m0-10v20M-1759.05 1423.56h20m-20 10l20-10m-20-10l20 10" stroke="#3a414a" stroke-width="2" fill="none"/><path d="M-1240.5 940.73a10 10 0 0 1 10-10h520a10 10 0 0 1 10 10v850a10 10 0 0 1-10 10h-520a10 10 0 0 1-10-10z" fill="#fff"/><path d="M-1240.5 940.73a10 10 0 0 1 10-10h520a10 10 0 0 1 10 10v48h-540z" fill="#9391ff"/><path d="M-1240.5 988.73h540v59h-540z" fill="#fff"/><path d="M-1240.5 1046.73h540v59h-540z" fill="#fff"/><path d="M-1240.5 1104.73h540v59h-540z" fill="#fff"/><path d="M-1240.5 1162.73h540v59h-540z" fill="#fff"/><path d="M-1240.5 1220.73h540v59h-540z" fill="#fff"/><path d="M-1240.5 1278.73h540v59h-540z" fill="#fff"/><path d="M-1240.5 1336.73h540v59h-540z" fill="#fff"/><path d="M-1240.5 1394.73h540v59h-540z" fill="#fff"/><path d="M-1240.5 1452.73h540v59h-540z" fill="#fff"/><path d="M-1240.5 1510.73h540v59h-540z" fill="#fff"/><path d="M-1240.5 1568.73h540v59h-540z" fill="#fff"/><path d="M-1240.5 1626.73h540v59h-540z" fill="#fff"/><path d="M-1240.5 1684.73h540v59h-540z" fill="#fff"/><path d="M-1240.5 1742.73h540v48a10 10 0 0 1-10 10h-520a10 10 0 0 1-10-10z" fill="#fff"/><path d="M-1240 988.73h539-539zM-1240.5 940.73a10 10 0 0 1 10-10h520a10 10 0 0 1 10 10v850a10 10 0 0 1-10 10h-520a10 10 0 0 1-10-10zM-848.63 989.23v811z" stroke="#282c33" fill="none"/><use xlink:href="#P" transform="matrix(1,0,0,1,-1230.5,930.7339498297217) translate(0 43.55078125)"/><use xlink:href="#Q" transform="matrix(1,0,0,1,-1235.5,991.2339498297217) translate(0 41.05078125)"/><use xlink:href="#c" transform="matrix(1,0,0,1,-843.6255887935395,991.2339498297217) translate(0 41.05078125)"/><use xlink:href="#G" transform="matrix(1,0,0,1,-1235.5,1049.2339498297217) translate(0 41.05078125)"/><use xlink:href="#m" transform="matrix(1,0,0,1,-1235.5,1107.2339498297217) translate(0 41.05078125)"/><use xlink:href="#H" transform="matrix(1,0,0,1,-1235.5,1165.2339498297217) translate(0 41.05078125)"/><use xlink:href="#b" transform="matrix(1,0,0,1,-1235.5,1223.2339498297217) translate(0 41.05078125)"/><use xlink:href="#x" transform="matrix(1,0,0,1,-1235.5,1281.2339498297217) translate(0 41.05078125)"/><use xlink:href="#R" transform="matrix(1,0,0,1,-1235.5,1339.2339498297217) translate(0 41.05078125)"/><use xlink:href="#S" transform="matrix(1,0,0,1,-1235.5,1397.2339498297217) translate(0 41.05078125)"/><use xlink:href="#T" transform="matrix(1,0,0,1,-1235.5,1455.2339498297217) translate(0 41.05078125)"/><use xlink:href="#U" transform="matrix(1,0,0,1,-1235.5,1513.2339498297217) translate(0 41.05078125)"/><use xlink:href="#V" transform="matrix(1,0,0,1,-1235.5,1571.2339498297217) translate(0 41.05078125)"/><use xlink:href="#W" transform="matrix(1,0,0,1,-1235.5,1629.2339498297217) translate(0 41.05078125)"/><use xlink:href="#X" transform="matrix(1,0,0,1,-1235.5,1687.2339498297217) translate(0 41.05078125)"/><use xlink:href="#Y" transform="matrix(1,0,0,1,-1235.5,1745.2339498297217) translate(0 41.05078125)"/><path d="M-380 950a10 10 0 0 1 10-10h519.5a10 10 0 0 1 10 10v734a10 10 0 0 1-10 10H-370a10 10 0 0 1-10-10z" fill="#fff"/><path d="M-380 950a10 10 0 0 1 10-10h519.5a10 10 0 0 1 10 10v48H-380z" fill="#9391ff"/><path d="M-380 998h539.5v59H-380z" fill="#fff"/><path d="M-380 1056h539.5v59H-380z" fill="#fff"/><path d="M-380 1114h539.5v59H-380z" fill="#fff"/><path d="M-380 1172h539.5v59H-380z" fill="#fff"/><path d="M-380 1230h539.5v59H-380z" fill="#fff"/><path d="M-380 1288h539.5v59H-380z" fill="#fff"/><path d="M-380 1346h539.5v59H-380z" fill="#fff"/><path d="M-380 1404h539.5v59H-380z" fill="#fff"/><path d="M-380 1462h539.5v59H-380z" fill="#fff"/><path d="M-380 1520h539.5v59H-380z" fill="#fff"/><path d="M-380 1578h539.5v59H-380z" fill="#fff"/><path d="M-380 1636h539.5v48a10 10 0 0 1-10 10H-370a10 10 0 0 1-10-10z" fill="#fff"/><path d="M-379.5 998H159h-538.5zM-380 950a10 10 0 0 1 10-10h519.5a10 10 0 0 1 10 10v734a10 10 0 0 1-10 10H-370a10 10 0 0 1-10-10zM37.5 998.5v695z" stroke="#282c33" fill="none"/><use xlink:href="#Z" transform="matrix(1,0,0,1,-370,940) translate(0 43.55078125)"/><use xlink:href="#aa" transform="matrix(1,0,0,1,-375,1000.5) translate(0 41.05078125)"/><use xlink:href="#c" transform="matrix(1,0,0,1,42.49999999999994,1000.5) translate(0 41.05078125)"/><use xlink:href="#ab" transform="matrix(1,0,0,1,-375,1058.5) translate(0 41.05078125)"/><use xlink:href="#R" transform="matrix(1,0,0,1,-375,1116.5) translate(0 41.05078125)"/><use xlink:href="#m" transform="matrix(1,0,0,1,-375,1174.5) translate(0 41.05078125)"/><use xlink:href="#b" transform="matrix(1,0,0,1,-375,1232.5) translate(0 41.05078125)"/><use xlink:href="#x" transform="matrix(1,0,0,1,-375,1290.5) translate(0 41.05078125)"/><use xlink:href="#ac" transform="matrix(1,0,0,1,-375,1348.5) translate(0 41.05078125)"/><use xlink:href="#ad" transform="matrix(1,0,0,1,-375,1406.5) translate(0 41.05078125)"/><use xlink:href="#ae" transform="matrix(1,0,0,1,-375,1464.5) translate(0 41.05078125)"/><use xlink:href="#af" transform="matrix(1,0,0,1,-375,1522.5) translate(0 41.05078125)"/><use xlink:href="#ag" transform="matrix(1,0,0,1,-375,1580.5) translate(0 41.05078125)"/><use xlink:href="#ah" transform="matrix(1,0,0,1,-375,1638.5) translate(0 41.05078125)"/><path d="M-1559.5 70.32h143.5a6 6 0 0 1 6 6V754a6 6 0 0 0 6 6h908a6 6 0 0 1 6 6v429a6 6 0 0 0 6 6h84.68M-1579.5 70.32h20m0 10v-20M-380.95 1201h-20m20-10l-20 10m20 10l-20-10" stroke="#3a414a" stroke-width="2" fill="none"/><path d="M-1220-50a10 10 0 0 1 10-10h447.7a10 10 0 0 1 10 10v502a10 10 0 0 1-10 10H-1210a10 10 0 0 1-10-10z" fill="#fff"/><path d="M-1220-50a10 10 0 0 1 10-10h447.7a10 10 0 0 1 10 10v48H-1220z" fill="#00c2a8"/><path d="M-1220-2h467.7v59H-1220z" fill="#fff"/><path d="M-1220 56h467.7v59H-1220z" fill="#fff"/><path d="M-1220 114h467.7v59H-1220z" fill="#fff"/><path d="M-1220 172h467.7v59H-1220z" fill="#fff"/><path d="M-1220 230h467.7v59H-1220z" fill="#fff"/><path d="M-1220 288h467.7v59H-1220z" fill="#fff"/><path d="M-1220 346h467.7v59H-1220z" fill="#fff"/><path d="M-1220 404h467.7v48a10 10 0 0 1-10 10H-1210a10 10 0 0 1-10-10z" fill="#fff"/><path d="M-1219.5-2h466.7-466.7zM-1220-50a10 10 0 0 1 10-10h447.7a10 10 0 0 1 10 10v502a10 10 0 0 1-10 10H-1210a10 10 0 0 1-10-10zM-908.35-1.5v463z" stroke="#282c33" fill="none"/><use xlink:href="#ai" transform="matrix(1,0,0,1,-1210,-60) translate(0 43.55078125)"/><use xlink:href="#H" transform="matrix(1,0,0,1,-1215,0.5) translate(0 41.05078125)"/><use xlink:href="#c" transform="matrix(1,0,0,1,-903.3518013870344,0.5) translate(0 41.05078125)"/><use xlink:href="#aj" transform="matrix(1,0,0,1,-1215,58.5) translate(0 41.05078125)"/><use xlink:href="#ak" transform="matrix(1,0,0,1,-1215,116.5) translate(0 41.05078125)"/><use xlink:href="#al" transform="matrix(1,0,0,1,-1215,174.5) translate(0 41.05078125)"/><use xlink:href="#am" transform="matrix(1,0,0,1,-1215,232.5) translate(0 41.05078125)"/><use xlink:href="#an" transform="matrix(1,0,0,1,-1215,290.5) translate(0 41.05078125)"/><use xlink:href="#ao" transform="matrix(1,0,0,1,-1215,348.5) translate(0 41.05078125)"/><use xlink:href="#ap" transform="matrix(1,0,0,1,-1215,406.5) translate(0 41.05078125)"/><path d="M-680 1249.73h53.5a6 6 0 0 0 6-6V586a6 6 0 0 1 6-6H284a6 6 0 0 0 6-6V74a6 6 0 0 1 6-6h102.87a.63.63 0 0 1 .63.64.63.63 0 0 0 .63.63h20.55M-700 1249.73h20m0 10v-20M439.05 69.27h-20m20-10l-20 10m20 10l-20-10M-1240.5 68h-94a6 6 0 0 0-6 6v1227.7a6 6 0 0 1-6 6h-394.18M-1220.5 68h-20m0-10v20M-1759.05 1307.7h20m-20 10l20-10m-20-10l20 10M1120.5 1143h13.5a6 6 0 0 0 6-6V75.27a6 6 0 0 0-6-6H941.13M1100.5 1143h20m0 10v-20M922.75 69.27h20m-20 10l20-10m-20-10l20 10" stroke="#3a414a" stroke-width="2" fill="none"/><path d="M620 950a10 10 0 0 1 10-10h460a10 10 0 0 1 10 10v444a10 10 0 0 1-10 10H630a10 10 0 0 1-10-10z" fill="#fff"/><path d="M620 950a10 10 0 0 1 10-10h460a10 10 0 0 1 10 10v48H620z" fill="#9391ff"/><path d="M620 998h480v59H620z" fill="#fff"/><path d="M620 1056h480v59H620z" fill="#fff"/><path d="M620 1114h480v59H620z" fill="#fff"/><path d="M620 1172h480v59H620z" fill="#fff"/><path d="M620 1230h480v59H620z" fill="#fff"/><path d="M620 1288h480v59H620z" fill="#fff"/><path d="M620 1346h480v48a10 10 0 0 1-10 10H630a10 10 0 0 1-10-10z" fill="#fff"/><path d="M620.5 998h479-479zM620 950a10 10 0 0 1 10-10h460a10 10 0 0 1 10 10v444a10 10 0 0 1-10 10H630a10 10 0 0 1-10-10zM1005.23 998.5v405z" stroke="#282c33" fill="none"/><use xlink:href="#aq" transform="matrix(1,0,0,1,630,940) translate(0 43.55078125)"/><use xlink:href="#R" transform="matrix(1,0,0,1,625,1000.5) translate(0 41.05078125)"/><use xlink:href="#c" transform="matrix(1,0,0,1,1010.233888213892,1000.5) translate(0 41.05078125)"/><use xlink:href="#m" transform="matrix(1,0,0,1,625,1058.5) translate(0 41.05078125)"/><use xlink:href="#ar" transform="matrix(1,0,0,1,625,1116.5) translate(0 41.05078125)"/><use xlink:href="#as" transform="matrix(1,0,0,1,625,1174.5) translate(0 41.05078125)"/><use xlink:href="#at" transform="matrix(1,0,0,1,625,1232.5) translate(0 41.05078125)"/><use xlink:href="#au" transform="matrix(1,0,0,1,625,1290.5) translate(0 41.05078125)"/><use xlink:href="#av" transform="matrix(1,0,0,1,625,1348.5) translate(0 41.05078125)"/><path d="M599.5 1201H296a6 6 0 0 1-6-6V766a6 6 0 0 0-6-6H86a6 6 0 0 1-6-6V68.18a6 6 0 0 0-6-6H39.32M619.5 1201h-20m0-10v20M20.95 62.18h20m-20 10l20-10m-20-10l20 10" stroke="#3a414a" stroke-width="2" fill="none"/><path d="M-1559.5 70.32h14a6 6 0 0 1 6 6V94a6 6 0 0 0 6 6h67.5a6 6 0 0 1 6 6v578a6 6 0 0 0 6 6H573.5a6 6 0 0 1 6 6v383a6 6 0 0 0 6 6h15.18M-1579.5 70.32h20m0 10v-20M619.05 1085h-20m20-10l-20 10m20 10l-20-10" stroke="#3a414a" stroke-width="2" fill="none"/><path d="M40.5 62.18H194a6 6 0 0 1 6 6v1261.6a6 6 0 0 1-6 6h-15.18M20.5 62.18h20m0 10v-20M160.45 1335.78h20m-20 10l20-10m-20-10l20 10" stroke="#3a414a" stroke-width="2" fill="none"/><path d="M-829.2-334a6 6 0 0 1 6-6h606.4a6 6 0 0 1 6 6v105.56a6 6 0 0 1-6 6h-606.4a6 6 0 0 1-6-6z" fill="none"/><use xlink:href="#aw" transform="matrix(1,0,0,1,-824.1933680555555,-335) translate(0 86.33506944444444)"/><use xlink:href="#ax" transform="matrix(1,0,0,1,-824.1933680555555,-335) translate(407.03125 86.33506944444444)"/><path d="M-698.5 1365.73h4.6m6.1 0h9.2m6.1 0h9.2m6.1 0h9.2m6.1 0h9.2m6.1 0h9.2m6.1 0h9.2m6.1 0h9.2m6.1 0h9.2m6.1 0h9.2m6.1 0h4.6a6 6 0 0 0 6-6v-4.52m0-6.02v-9.04m0-6.03v-9.04m0-6.03v-9.05m0-6.03v-9.04m0-6.02v-9.05m0-6.03v-9.04m0-6.03v-9.05m0-6.03v-9.04m0-6.02v-9.05m0-6.03v-9.04m0-6.03v-9.05m0-6.03v-9.04m0-6.02v-9.05m0-6.03v-4.52a6 6 0 0 1 6-6h4.54m6.07 0h9.1m6.05 0h9.1m6.05 0h9.1m6.06 0h9.08m6.06 0h9.1m6.06 0h9.08m6.06 0h9.1m6.05 0h9.1m6.06 0h9.1m6.06 0h4.54" stroke="#73597d" stroke-width="3" fill="none"/><path d="M-698.46 1367.2H-700v-2.94h1.54zM-380.5 1144.15h-1.54v-2.95h1.54z" stroke="#73597d" stroke-width=".05" fill="#73597d"/><path d="M-698.5 1365.73h4.88m6.5 0h9.75m6.5 0h4.87a6 6 0 0 1 6 6v4.47m0 5.96v8.94m0 5.96v8.94m0 5.96v8.94m0 5.96v8.94m0 5.96v8.94m0 5.96v8.94m0 5.96v8.93m0 5.95v8.94m0 5.95v8.94m0 5.95v8.94m0 5.95v8.94m0 5.95v8.94m0 5.95v8.94m0 5.95v8.94m0 5.94v8.94m0 5.96v8.94m0 5.96v8.94m0 5.96v8.94m0 5.96v8.94m0 5.96v8.94m0 5.96v8.94m0 5.96v8.94m0 5.95v8.94m0 5.96v8.94m0 5.96v8.94m0 5.96v8.94m0 5.96v4.47a6 6 0 0 0 6 6h4.5m5.98 0h8.98m6 0h8.97m6 0h8.97m6 0h8.97m6 0h8.97m6 0h8.97m6 0h8.98m6 0h8.97m6 0h8.97m5.98 0h9m5.97 0h8.98m6 0h8.98m5.98 0h9m5.98 0h8.98m6 0h8.97m6 0h8.97m6 0h8.97m6 0h8.97m6 0h8.97m6 0h8.98m6 0h8.97m6 0h8.97m6 0h8.97m5.98 0h8.98m6 0h8.97m6 0h8.97m6 0h8.97m6 0h8.97m6 0h8.97m6 0h8.98m5.98 0h9m5.97 0h8.98m6 0h9m5.97 0h8.98m6 0h8.97m6 0h8.97m5.98 0h8.98m6 0h8.97m6 0h8.97m6 0h8.97m6 0h8.97m6 0h8.97m6 0h8.98m6 0h8.97m6 0h8.97m6 0h8.97m5.98 0h8.98m6 0h8.97m5.98 0h9m5.98 0h9m5.97 0h9m5.97 0h8.98m6 0h8.97m6 0h8.97m6 0h8.97m6 0h8.98m6 0h8.97m6 0h8.97m6 0h8.97m5.98 0h8.98m6 0h8.97m6 0h8.97m6 0h8.97m6 0h8.97m6 0h8.97m6 0h8.98m6 0h8.97m6 0h8.97m5.98 0h9m5.98 0h8.98m6 0h8.97m5.98 0h9m5.98 0h9m5.97 0h9m5.97 0h8.98m6 0h8.97m6 0h8.97m6 0h8.97m6 0h8.98m6 0h8.97m6 0H563m6 0h4.48a6 6 0 0 0 6-6v-4.54m0-6.05v-9.07m0-6.05v-9.08m0-6.05v-9.07m0-6.06v-9.07m0-6.05v-9.08m0-6.05v-9.08m0-6.06v-9.08m0-6.05v-9.07m0-6.05v-9.08m0-6.05v-9.08m0-6.05v-9.07m0-6.06v-9.08m0-6.05v-9.08m0-6.06v-9.08m0-6.05v-9.07m0-6.05v-9.08m0-6.05v-9.07m0-6.06v-9.07m0-6.06v-9.08m0-6.05v-9.08m0-6.06v-9.08m0-6.05v-9.07m0-6.05v-9.08m0-6.05v-9.08m0-6.05v-9.07m0-6.06v-9.08m0-6.05V1361m0-6.06v-9.08m0-6.05v-9.07m0-6.05v-9.08m0-6.05v-9.08m0-6.05v-9.07m0-6.06v-9.08m0-6.05v-9.08m0-6.06v-9.08m0-6.05v-9.07m0-6.05v-9.08m0-6.05v-9.08m0-6.05v-9.08m0-6.05v-9.08m0-6.05v-9.08m0-6.06v-9.08m0-6.05v-9.07m0-6.05v-9.08m0-6.05v-9.08m0-6.05v-9.07m0-6.06v-9.08m0-6.06v-9.07m0-6.06v-4.54a6 6 0 0 1 6-6h4.88m6.5 0h9.75m6.5 0H618" stroke="#73597d" stroke-width="3" fill="none"/><path d="M-698.46 1367.2H-700v-2.94h1.54zM619.5 1028.17h-1.54v-2.95h1.54z" stroke="#73597d" stroke-width=".05" fill="#73597d"/><defs><path d="M537 19C279 19 81-185 81-557c0-382 206-575 454-575 190 0 278 113 318 202h10v-560h300V0H868v-179h-15C812-89 719 19 537 19zm92-241c153 0 240-134 240-336 0-203-86-334-240-334-158 0-240 138-240 334 0 197 84 336 240 336" id="ay"/><path d="M128 0v-1118h300V0H128zm150-1264c-91 0-165-68-165-154 0-85 74-154 165-154 90 0 165 69 165 154 0 86-75 154-165 154" id="az"/><path d="M128 0v-1118h278l12 217c60-163 185-234 319-234 143 0 236 81 288 251 63-172 205-251 359-251 205 0 357 138 357 381V0h-301v-697c0-126-76-187-177-187-114 0-184 79-184 196V0H789v-705c0-109-72-179-174-179-106 0-187 74-187 208V0H128" id="aA"/><path d="M975 0v231H0V0h975" id="aB"/><path d="M440 22C227 22 68-92 68-313c0-250 202-322 422-343 195-21 271-24 271-105 0-95-63-149-175-149-116 0-187 57-211 129l-275-46c57-194 237-305 487-305 240 0 474 108 474 379V0H777v-155h-10C713-51 605 22 440 22zm85-211c140 0 238-93 238-211v-121c-37 26-156 42-222 51-111 16-185 59-185 149 0 87 70 132 169 132" id="aC"/><path d="M683-1118v229H474v562c0 71 29 104 102 104 23 0 73-7 95-13l43 225C647 9 580 16 520 16 296 16 174-96 174-301v-588H20v-229h154v-266h300v266h209" id="aD"/><path d="M633 22C291 22 81-200 81-553c0-345 210-579 537-579 292 0 525 185 525 567v84H378c7 183 109 277 260 277 105 0 184-46 216-132l272 51C1071-99 893 22 633 22zM380-669h474c-15-146-94-237-233-237-143 0-229 99-241 237" id="aE"/><g id="a"><use transform="matrix(0.01953125,0,0,0.01953125,0,0)" xlink:href="#ay"/><use transform="matrix(0.01953125,0,0,0.01953125,25.21484375,0)" xlink:href="#az"/><use transform="matrix(0.01953125,0,0,0.01953125,36.0546875,0)" xlink:href="#aA"/><use transform="matrix(0.01953125,0,0,0.01953125,72.55859375,0)" xlink:href="#aB"/><use transform="matrix(0.01953125,0,0,0.01953125,91.6015625,0)" xlink:href="#ay"/><use transform="matrix(0.01953125,0,0,0.01953125,116.81640625,0)" xlink:href="#aC"/><use transform="matrix(0.01953125,0,0,0.01953125,140.0390625,0)" xlink:href="#aD"/><use transform="matrix(0.01953125,0,0,0.01953125,154.296875,0)" xlink:href="#aE"/></g><path d="M577 24c-279 0-473-224-473-580 0-354 195-576 474-576 218 0 287 134 324 193h14v-551h180V0H922v-173h-20C865-111 790 24 577 24zm27-161c203 0 314-172 314-421 0-247-108-413-314-413-212 0-317 181-317 413 0 235 108 421 317 421" id="aF"/><path d="M471 26C259 26 90-98 90-318c0-256 228-303 435-329 202-27 287-16 287-108 0-139-79-219-234-219-161 0-248 86-283 164l-173-57c86-203 278-265 451-265 150 0 419 46 419 395V0H815v-152h-12C765-73 660 26 471 26zm31-159c199 0 310-134 310-271v-155c-30 35-226 55-295 64-131 17-246 59-246 186 0 116 97 176 231 176" id="aG"/><path d="M598-1118v154H368v674c0 100 37 144 132 144 23 0 62-6 92-12L629-6c-37 13-88 20-134 20-193 0-307-107-307-290v-688H20v-154h168v-266h180v266h230" id="aH"/><path d="M628 24c-324 0-524-230-524-574 0-343 198-582 503-582 237 0 487 146 487 559v75H286c9 234 145 362 343 362 132 0 231-58 273-172l174 48C1024-91 857 24 628 24zM287-650h624c-17-190-120-322-304-322-192 0-309 151-320 322" id="aI"/><path d="M934 0v166H0V0h934" id="aJ"/><path d="M158 0v-1490h180v865h22l478-493h223L593-638 1096 0H865L456-523 338-412V0H158" id="aK"/><path d="M140 405l46-156c120 36 205 19 263-150l32-93L54-1118h197c107 313 237 620 324 950 87-331 219-637 326-950h196L606 167c-68 178-176 259-334 259-64 0-113-12-132-21" id="aL"/><g id="b"><use transform="matrix(0.01953125,0,0,0.01953125,0,0)" xlink:href="#aF"/><use transform="matrix(0.01953125,0,0,0.01953125,24.4921875,0)" xlink:href="#aG"/><use transform="matrix(0.01953125,0,0,0.01953125,46.953125,0)" xlink:href="#aH"/><use transform="matrix(0.01953125,0,0,0.01953125,59.6484375,0)" xlink:href="#aI"/><use transform="matrix(0.01953125,0,0,0.01953125,82.96875,0)" xlink:href="#aJ"/><use transform="matrix(0.01953125,0,0,0.01953125,102.55859375,0)" xlink:href="#aK"/><use transform="matrix(0.01953125,0,0,0.01953125,123.61328125,0)" xlink:href="#aI"/><use transform="matrix(0.01953125,0,0,0.01953125,146.15234375,0)" xlink:href="#aL"/></g><path d="M180 0v-1490h510c348 0 508 209 508 474 0 266-160 477-507 477H370V0H180zm190-706h312c236 0 327-133 327-310 0-176-91-307-329-307H370v617" id="aM"/><path d="M180 0v-1490h190c0 262 1 526-3 784 217-279 467-523 702-784h249L716-845 1319 0h-225L585-716 370-489V0H180" id="aN"/><g id="c"><use transform="matrix(0.01953125,0,0,0.01953125,0,0)" xlink:href="#aM"/><use transform="matrix(0.01953125,0,0,0.01953125,25.546875,0)" xlink:href="#aN"/></g><path d="M678-1118v154H420V0H240v-964H20v-154h220v-149c0-194 155-293 318-293 85 0 141 18 168 30l-50 154c-19-6-47-17-97-17-111 0-159 58-159 166v109h258" id="aO"/><path d="M537 14c-226 0-379-139-379-422v-710h180v695c0 172 97 275 253 275 160 0 281-109 281-300v-670h181V0H879v-209C806-46 684 14 537 14" id="aP"/><path d="M338-1490V0H158v-1490h180" id="aQ"/><g id="d"><use transform="matrix(0.01953125,0,0,0.01953125,0,0)" xlink:href="#aO"/><use transform="matrix(0.01953125,0,0,0.01953125,14.8046875,0)" xlink:href="#aP"/><use transform="matrix(0.01953125,0,0,0.01953125,38.45703125,0)" xlink:href="#aQ"/><use transform="matrix(0.01953125,0,0,0.01953125,48.14453125,0)" xlink:href="#aQ"/><use transform="matrix(0.01953125,0,0,0.01953125,57.83203125,0)" xlink:href="#aJ"/><use transform="matrix(0.01953125,0,0,0.01953125,76.07421875,0)" xlink:href="#aF"/><use transform="matrix(0.01953125,0,0,0.01953125,100.56640625,0)" xlink:href="#aG"/><use transform="matrix(0.01953125,0,0,0.01953125,123.02734375,0)" xlink:href="#aH"/><use transform="matrix(0.01953125,0,0,0.01953125,135.72265625,0)" xlink:href="#aI"/></g><path d="M158 0v-1118h174v172h12c41-113 157-188 290-188 26 0 70 2 91 3v181c-11-2-60-10-108-10-161 0-279 109-279 260V0H158" id="aR"/><g id="e"><use transform="matrix(0.01953125,0,0,0.01953125,0,0)" xlink:href="#aL"/><use transform="matrix(0.01953125,0,0,0.01953125,21.69921875,0)" xlink:href="#aI"/><use transform="matrix(0.01953125,0,0,0.01953125,45.41015625,0)" xlink:href="#aG"/><use transform="matrix(0.01953125,0,0,0.01953125,67.87109375,0)" xlink:href="#aR"/></g><path d="M1096 418H916v-591h-14C865-111 790 24 577 24c-279 0-473-224-473-580 0-354 195-576 474-576 218 0 287 134 324 193h20v-179h174V418zM604-137c203 0 314-172 314-421 0-247-108-413-314-413-212 0-317 181-317 413 0 235 108 421 317 421" id="aS"/><g id="f"><use transform="matrix(0.01953125,0,0,0.01953125,0,0)" xlink:href="#aS"/><use transform="matrix(0.01953125,0,0,0.01953125,24.4921875,0)" xlink:href="#aP"/><use transform="matrix(0.01953125,0,0,0.01953125,48.14453125,0)" xlink:href="#aG"/><use transform="matrix(0.01953125,0,0,0.01953125,70.60546875,0)" xlink:href="#aR"/><use transform="matrix(0.01953125,0,0,0.01953125,86.2890625,0)" xlink:href="#aH"/><use transform="matrix(0.01953125,0,0,0.01953125,98.984375,0)" xlink:href="#aI"/><use transform="matrix(0.01953125,0,0,0.01953125,122.3046875,0)" xlink:href="#aR"/></g><path d="M158 0v-1118h175l1 205c55-151 181-225 313-225 147 0 245 90 285 228 53-141 190-228 352-228 194 0 352 125 352 384V0h-181v-749c0-161-105-225-225-225-151 0-243 103-243 244V0H807v-767c0-124-93-207-219-207-131 0-250 92-250 270V0H158" id="aT"/><path d="M613 24c-304 0-509-231-509-576 0-350 205-580 509-580 305 0 511 230 511 580 0 345-206 576-511 576zm0-161c226 0 329-195 329-415 0-222-103-419-329-419-223 0-326 196-326 419 0 220 103 415 326 415" id="aU"/><path d="M338-670V0H158v-1118h173l1 207c72-158 192-221 342-221 226 0 378 139 378 422V0H872v-695c0-172-96-275-252-275-161 0-282 109-282 300" id="aV"/><path d="M338-670V0H158v-1490h180v566c73-149 190-208 336-208 226 0 379 139 379 422V0H872v-695c0-172-96-275-252-275-161 0-282 109-282 300" id="aW"/><g id="g"><use transform="matrix(0.01953125,0,0,0.01953125,0,0)" xlink:href="#aT"/><use transform="matrix(0.01953125,0,0,0.01953125,35.0390625,0)" xlink:href="#aU"/><use transform="matrix(0.01953125,0,0,0.01953125,59.0234375,0)" xlink:href="#aV"/><use transform="matrix(0.01953125,0,0,0.01953125,82.65625,0)" xlink:href="#aH"/><use transform="matrix(0.01953125,0,0,0.01953125,95.7421875,0)" xlink:href="#aW"/></g><g id="h"><use transform="matrix(0.01953125,0,0,0.01953125,0,0)" xlink:href="#aT"/><use transform="matrix(0.01953125,0,0,0.01953125,35.0390625,0)" xlink:href="#aU"/><use transform="matrix(0.01953125,0,0,0.01953125,59.0234375,0)" xlink:href="#aV"/><use transform="matrix(0.01953125,0,0,0.01953125,82.65625,0)" xlink:href="#aH"/><use transform="matrix(0.01953125,0,0,0.01953125,95.7421875,0)" xlink:href="#aW"/><use transform="matrix(0.01953125,0,0,0.01953125,119.39453125,0)" xlink:href="#aJ"/><use transform="matrix(0.01953125,0,0,0.01953125,138.984375,0)" xlink:href="#aV"/><use transform="matrix(0.01953125,0,0,0.01953125,162.6171875,0)" xlink:href="#aG"/><use transform="matrix(0.01953125,0,0,0.01953125,185.078125,0)" xlink:href="#aT"/><use transform="matrix(0.01953125,0,0,0.01953125,220.1171875,0)" xlink:href="#aI"/></g><path d="M409 0L70-1118h191c89 329 165 560 243 925 75-353 154-601 240-925h192c85 325 161 564 235 922 77-354 157-598 244-922h191L1267 0h-179c-86-307-176-590-250-913C763-588 675-308 588 0H409" id="aX"/><g id="i"><use transform="matrix(0.01953125,0,0,0.01953125,0,0)" xlink:href="#aX"/><use transform="matrix(0.01953125,0,0,0.01953125,32.01171875,0)" xlink:href="#aI"/><use transform="matrix(0.01953125,0,0,0.01953125,55.33203125,0)" xlink:href="#aI"/><use transform="matrix(0.01953125,0,0,0.01953125,78.65234375,0)" xlink:href="#aK"/><use transform="matrix(0.01953125,0,0,0.01953125,100.60546875,0)" xlink:href="#aJ"/><use transform="matrix(0.01953125,0,0,0.01953125,118.84765625,0)" xlink:href="#aU"/><use transform="matrix(0.01953125,0,0,0.01953125,142.83203125,0)" xlink:href="#aO"/><use transform="matrix(0.01953125,0,0,0.01953125,157.0703125,0)" xlink:href="#aJ"/><use transform="matrix(0.01953125,0,0,0.01953125,172.1484375,0)" xlink:href="#aL"/><use transform="matrix(0.01953125,0,0,0.01953125,193.84765625,0)" xlink:href="#aI"/><use transform="matrix(0.01953125,0,0,0.01953125,217.55859375,0)" xlink:href="#aG"/><use transform="matrix(0.01953125,0,0,0.01953125,240.01953125,0)" xlink:href="#aR"/></g><g id="j"><use transform="matrix(0.01953125,0,0,0.01953125,0,0)" xlink:href="#aF"/><use transform="matrix(0.01953125,0,0,0.01953125,24.4921875,0)" xlink:href="#aG"/><use transform="matrix(0.01953125,0,0,0.01953125,46.3671875,0)" xlink:href="#aL"/><use transform="matrix(0.01953125,0,0,0.01953125,65.68359375,0)" xlink:href="#aJ"/><use transform="matrix(0.01953125,0,0,0.01953125,83.92578125,0)" xlink:href="#aU"/><use transform="matrix(0.01953125,0,0,0.01953125,107.91015625,0)" xlink:href="#aO"/><use transform="matrix(0.01953125,0,0,0.01953125,122.1484375,0)" xlink:href="#aJ"/><use transform="matrix(0.01953125,0,0,0.01953125,140.390625,0)" xlink:href="#aX"/><use transform="matrix(0.01953125,0,0,0.01953125,172.40234375,0)" xlink:href="#aI"/><use transform="matrix(0.01953125,0,0,0.01953125,195.72265625,0)" xlink:href="#aI"/><use transform="matrix(0.01953125,0,0,0.01953125,219.04296875,0)" xlink:href="#aK"/></g><g id="k"><use transform="matrix(0.01953125,0,0,0.01953125,0,0)" xlink:href="#aF"/><use transform="matrix(0.01953125,0,0,0.01953125,24.4921875,0)" xlink:href="#aG"/><use transform="matrix(0.01953125,0,0,0.01953125,46.3671875,0)" xlink:href="#aL"/><use transform="matrix(0.01953125,0,0,0.01953125,65.68359375,0)" xlink:href="#aJ"/><use transform="matrix(0.01953125,0,0,0.01953125,85.2734375,0)" xlink:href="#aV"/><use transform="matrix(0.01953125,0,0,0.01953125,108.90625,0)" xlink:href="#aG"/><use transform="matrix(0.01953125,0,0,0.01953125,131.3671875,0)" xlink:href="#aT"/><use transform="matrix(0.01953125,0,0,0.01953125,166.40625,0)" xlink:href="#aI"/></g><path d="M628 22C291 22 81-210 81-554c0-346 210-578 547-578 265 0 455 142 497 372l-279 52c-25-116-99-188-215-188-160 0-244 139-244 341 0 200 84 341 244 341 116 0 193-74 217-195l279 51C1085-123 896 22 628 22" id="aY"/><path d="M513 14c-232 0-385-159-385-421v-711h300v659c0 139 76 222 202 222 127 0 217-86 217-234v-647h301V0H864l-4-232C797-74 683 14 513 14" id="aZ"/><path d="M572 22C302 22 117-98 78-306l279-48c29 105 101 156 224 156 114 0 185-48 185-115 0-118-228-130-337-155-215-49-322-150-322-317 0-215 187-347 470-347 265 0 424 116 466 298l-266 47c-24-76-87-130-196-130-98 0-174 46-174 113 0 56 38 95 144 117l201 40c216 44 320 143 320 302 0 220-207 367-500 367" id="ba"/><path d="M628 22C291 22 81-210 81-554c0-346 210-578 547-578 336 0 547 232 547 578 0 344-211 576-547 576zm0-236c160 0 242-146 242-341 0-197-82-341-242-341S387-753 387-555c0 195 81 341 241 341" id="bb"/><path d="M128 0v-1118h290v195h12c54-169 184-238 367-200v268c-27-8-86-15-130-15-138 0-239 95-239 234V0H128" id="bc"/><g id="l"><use transform="matrix(0.01953125,0,0,0.01953125,0,0)" xlink:href="#ay"/><use transform="matrix(0.01953125,0,0,0.01953125,25.21484375,0)" xlink:href="#az"/><use transform="matrix(0.01953125,0,0,0.01953125,36.0546875,0)" xlink:href="#aA"/><use transform="matrix(0.01953125,0,0,0.01953125,72.55859375,0)" xlink:href="#aB"/><use transform="matrix(0.01953125,0,0,0.01953125,91.6015625,0)" xlink:href="#aY"/><use transform="matrix(0.01953125,0,0,0.01953125,115.13671875,0)" xlink:href="#aZ"/><use transform="matrix(0.01953125,0,0,0.01953125,140.0390625,0)" xlink:href="#ba"/><use transform="matrix(0.01953125,0,0,0.01953125,162.44140625,0)" xlink:href="#aD"/><use transform="matrix(0.01953125,0,0,0.01953125,176.69921875,0)" xlink:href="#bb"/><use transform="matrix(0.01953125,0,0,0.01953125,201.23046875,0)" xlink:href="#aA"/><use transform="matrix(0.01953125,0,0,0.01953125,237.734375,0)" xlink:href="#aE"/><use transform="matrix(0.01953125,0,0,0.01953125,261.5625,0)" xlink:href="#bc"/><use transform="matrix(0.01953125,0,0,0.01953125,277.8515625,0)" xlink:href="#ba"/></g><path d="M613 24c-304 0-509-231-509-576 0-350 205-580 509-580 216 0 392 114 453 309l-173 49c-33-115-133-197-280-197-223 0-326 196-326 419 0 220 103 415 326 415 150 0 252-85 285-206l172 49C1010-95 832 24 613 24" id="bd"/><path d="M538 24C308 24 148-78 108-271l171-41c32 123 123 178 257 178 156 0 256-77 256-169 0-77-54-128-164-154l-186-44c-203-48-300-148-300-305 0-192 176-326 414-326 230 0 351 112 402 269l-163 42c-31-80-94-158-238-158-133 0-233 69-233 162 0 83 57 129 188 160l169 40c203 48 298 149 298 302 0 196-179 339-441 339" id="be"/><g id="m"><use transform="matrix(0.01953125,0,0,0.01953125,0,0)" xlink:href="#bd"/><use transform="matrix(0.01953125,0,0,0.01953125,22.8515625,0)" xlink:href="#aP"/><use transform="matrix(0.01953125,0,0,0.01953125,46.50390625,0)" xlink:href="#be"/><use transform="matrix(0.01953125,0,0,0.01953125,67.6171875,0)" xlink:href="#aH"/><use transform="matrix(0.01953125,0,0,0.01953125,80.3125,0)" xlink:href="#aU"/><use transform="matrix(0.01953125,0,0,0.01953125,104.296875,0)" xlink:href="#aT"/><use transform="matrix(0.01953125,0,0,0.01953125,139.3359375,0)" xlink:href="#aI"/><use transform="matrix(0.01953125,0,0,0.01953125,162.65625,0)" xlink:href="#aR"/><use transform="matrix(0.01953125,0,0,0.01953125,177.71484375,0)" xlink:href="#aJ"/><use transform="matrix(0.01953125,0,0,0.01953125,197.3046875,0)" xlink:href="#aK"/><use transform="matrix(0.01953125,0,0,0.01953125,218.359375,0)" xlink:href="#aI"/><use transform="matrix(0.01953125,0,0,0.01953125,240.8984375,0)" xlink:href="#aL"/></g><path d="M158 0v-1118h180V0H158zm91-1301c-68 0-125-53-125-119s57-119 125-119c69 0 126 53 126 119s-57 119-126 119" id="bf"/><g id="n"><use transform="matrix(0.01953125,0,0,0.01953125,0,0)" xlink:href="#bd"/><use transform="matrix(0.01953125,0,0,0.01953125,22.8515625,0)" xlink:href="#aP"/><use transform="matrix(0.01953125,0,0,0.01953125,46.50390625,0)" xlink:href="#be"/><use transform="matrix(0.01953125,0,0,0.01953125,67.6171875,0)" xlink:href="#aH"/><use transform="matrix(0.01953125,0,0,0.01953125,80.3125,0)" xlink:href="#aU"/><use transform="matrix(0.01953125,0,0,0.01953125,104.296875,0)" xlink:href="#aT"/><use transform="matrix(0.01953125,0,0,0.01953125,139.3359375,0)" xlink:href="#aI"/><use transform="matrix(0.01953125,0,0,0.01953125,162.65625,0)" xlink:href="#aR"/><use transform="matrix(0.01953125,0,0,0.01953125,177.71484375,0)" xlink:href="#aJ"/><use transform="matrix(0.01953125,0,0,0.01953125,197.3046875,0)" xlink:href="#bf"/><use transform="matrix(0.01953125,0,0,0.01953125,206.9921875,0)" xlink:href="#aF"/></g><g id="o"><use transform="matrix(0.01953125,0,0,0.01953125,0,0)" xlink:href="#aO"/><use transform="matrix(0.01953125,0,0,0.01953125,14.8046875,0)" xlink:href="#aP"/><use transform="matrix(0.01953125,0,0,0.01953125,38.45703125,0)" xlink:href="#aQ"/><use transform="matrix(0.01953125,0,0,0.01953125,48.14453125,0)" xlink:href="#aQ"/><use transform="matrix(0.01953125,0,0,0.01953125,57.83203125,0)" xlink:href="#aJ"/><use transform="matrix(0.01953125,0,0,0.01953125,77.421875,0)" xlink:href="#aV"/><use transform="matrix(0.01953125,0,0,0.01953125,101.0546875,0)" xlink:href="#aG"/><use transform="matrix(0.01953125,0,0,0.01953125,123.515625,0)" xlink:href="#aT"/><use transform="matrix(0.01953125,0,0,0.01953125,158.5546875,0)" xlink:href="#aI"/></g><g id="p"><use transform="matrix(0.01953125,0,0,0.01953125,0,0)" xlink:href="#aI"/><use transform="matrix(0.01953125,0,0,0.01953125,23.3203125,0)" xlink:href="#aT"/><use transform="matrix(0.01953125,0,0,0.01953125,58.359375,0)" xlink:href="#aG"/><use transform="matrix(0.01953125,0,0,0.01953125,80.8203125,0)" xlink:href="#bf"/><use transform="matrix(0.01953125,0,0,0.01953125,90.5078125,0)" xlink:href="#aQ"/></g><path d="M611 442c-248 0-391-105-460-228l146-94c47 65 117 165 314 165 178 0 307-82 307-266v-224h-17C863-141 792-18 576-18c-268 0-472-195-472-546 0-346 197-568 476-568 216 0 288 133 326 193h17v-179h175V29c0 289-215 413-487 413zm-5-620c203 0 314-146 314-390 0-237-108-403-314-403-213 0-319 180-319 403 0 230 109 390 319 390" id="bg"/><g id="q"><use transform="matrix(0.01953125,0,0,0.01953125,0,0)" xlink:href="#bg"/><use transform="matrix(0.01953125,0,0,0.01953125,24.53125,0)" xlink:href="#aI"/><use transform="matrix(0.01953125,0,0,0.01953125,47.8515625,0)" xlink:href="#aV"/><use transform="matrix(0.01953125,0,0,0.01953125,71.484375,0)" xlink:href="#aF"/><use transform="matrix(0.01953125,0,0,0.01953125,95.9765625,0)" xlink:href="#aI"/><use transform="matrix(0.01953125,0,0,0.01953125,119.296875,0)" xlink:href="#aR"/></g><g id="r"><use transform="matrix(0.01953125,0,0,0.01953125,0,0)" xlink:href="#aG"/><use transform="matrix(0.01953125,0,0,0.01953125,22.4609375,0)" xlink:href="#bg"/><use transform="matrix(0.01953125,0,0,0.01953125,46.9921875,0)" xlink:href="#aI"/></g><path d="M158 418v-1536h174v179h20c37-59 106-193 324-193 279 0 474 222 474 576 0 356-194 580-473 580-213 0-288-135-325-197h-14v591H158zm492-555c209 0 317-186 317-421 0-232-105-413-317-413-206 0-314 166-314 413 0 249 111 421 314 421" id="bh"/><g id="s"><use transform="matrix(0.01953125,0,0,0.01953125,0,0)" xlink:href="#aG"/><use transform="matrix(0.01953125,0,0,0.01953125,22.4609375,0)" xlink:href="#bg"/><use transform="matrix(0.01953125,0,0,0.01953125,46.9921875,0)" xlink:href="#aI"/><use transform="matrix(0.01953125,0,0,0.01953125,70.3125,0)" xlink:href="#aJ"/><use transform="matrix(0.01953125,0,0,0.01953125,88.5546875,0)" xlink:href="#bg"/><use transform="matrix(0.01953125,0,0,0.01953125,113.0859375,0)" xlink:href="#aR"/><use transform="matrix(0.01953125,0,0,0.01953125,127.48046875,0)" xlink:href="#aU"/><use transform="matrix(0.01953125,0,0,0.01953125,151.46484375,0)" xlink:href="#aP"/><use transform="matrix(0.01953125,0,0,0.01953125,175.1171875,0)" xlink:href="#bh"/></g><g id="t"><use transform="matrix(0.01953125,0,0,0.01953125,0,0)" xlink:href="#bd"/><use transform="matrix(0.01953125,0,0,0.01953125,22.8515625,0)" xlink:href="#bf"/><use transform="matrix(0.01953125,0,0,0.01953125,32.5390625,0)" xlink:href="#aH"/><use transform="matrix(0.01953125,0,0,0.01953125,46.40625,0)" xlink:href="#aL"/></g><g id="u"><use transform="matrix(0.01953125,0,0,0.01953125,0,0)" xlink:href="#bd"/><use transform="matrix(0.01953125,0,0,0.01953125,22.8515625,0)" xlink:href="#aU"/><use transform="matrix(0.01953125,0,0,0.01953125,46.8359375,0)" xlink:href="#aP"/><use transform="matrix(0.01953125,0,0,0.01953125,70.48828125,0)" xlink:href="#aV"/><use transform="matrix(0.01953125,0,0,0.01953125,94.12109375,0)" xlink:href="#aH"/><use transform="matrix(0.01953125,0,0,0.01953125,107.20703125,0)" xlink:href="#aR"/><use transform="matrix(0.01953125,0,0,0.01953125,122.890625,0)" xlink:href="#aL"/></g><path d="M157-1118h181V80c1 225-123 350-364 338V252c126 9 184-48 183-172v-1198zm91-183c-68 0-125-53-125-119s57-119 125-119c69 0 126 53 126 119s-57 119-126 119" id="bi"/><g id="v"><use transform="matrix(0.01953125,0,0,0.01953125,0,0)" xlink:href="#bi"/><use transform="matrix(0.01953125,0,0,0.01953125,9.6875,0)" xlink:href="#aU"/><use transform="matrix(0.01953125,0,0,0.01953125,33.671875,0)" xlink:href="#bf"/><use transform="matrix(0.01953125,0,0,0.01953125,43.359375,0)" xlink:href="#aV"/><use transform="matrix(0.01953125,0,0,0.01953125,66.9921875,0)" xlink:href="#aJ"/><use transform="matrix(0.01953125,0,0,0.01953125,85.234375,0)" xlink:href="#aF"/><use transform="matrix(0.01953125,0,0,0.01953125,109.7265625,0)" xlink:href="#aG"/><use transform="matrix(0.01953125,0,0,0.01953125,132.1875,0)" xlink:href="#aH"/><use transform="matrix(0.01953125,0,0,0.01953125,144.8828125,0)" xlink:href="#aI"/></g><g id="w"><use transform="matrix(0.01953125,0,0,0.01953125,0,0)" xlink:href="#ay"/><use transform="matrix(0.01953125,0,0,0.01953125,25.21484375,0)" xlink:href="#az"/><use transform="matrix(0.01953125,0,0,0.01953125,36.0546875,0)" xlink:href="#aA"/><use transform="matrix(0.01953125,0,0,0.01953125,72.55859375,0)" xlink:href="#aB"/><use transform="matrix(0.01953125,0,0,0.01953125,91.6015625,0)" xlink:href="#aD"/><use transform="matrix(0.01953125,0,0,0.01953125,106.25,0)" xlink:href="#az"/><use transform="matrix(0.01953125,0,0,0.01953125,117.08984375,0)" xlink:href="#aA"/><use transform="matrix(0.01953125,0,0,0.01953125,153.59375,0)" xlink:href="#aE"/></g><g id="x"><use transform="matrix(0.01953125,0,0,0.01953125,0,0)" xlink:href="#aH"/><use transform="matrix(0.01953125,0,0,0.01953125,13.0859375,0)" xlink:href="#bf"/><use transform="matrix(0.01953125,0,0,0.01953125,22.7734375,0)" xlink:href="#aT"/><use transform="matrix(0.01953125,0,0,0.01953125,57.8125,0)" xlink:href="#aI"/><use transform="matrix(0.01953125,0,0,0.01953125,81.1328125,0)" xlink:href="#aJ"/><use transform="matrix(0.01953125,0,0,0.01953125,100.72265625,0)" xlink:href="#aK"/><use transform="matrix(0.01953125,0,0,0.01953125,121.77734375,0)" xlink:href="#aI"/><use transform="matrix(0.01953125,0,0,0.01953125,144.31640625,0)" xlink:href="#aL"/></g><path d="M154 0v-137l495-537c165-179 249-281 249-418 0-156-121-253-280-253-170 0-278 110-278 278H158c0-264 200-443 465-443 266 0 455 183 455 416 0 161-73 288-336 568L416-179v12h687V0H154" id="bj"/><path d="M120-303v-155l652-1032h231v1020h202v167h-202V0H821v-303H120zm702-167v-782h-12L323-482v12h499" id="bk"/><g id="y"><use transform="matrix(0.01953125,0,0,0.01953125,0,0)" xlink:href="#aH"/><use transform="matrix(0.01953125,0,0,0.01953125,13.0859375,0)" xlink:href="#bf"/><use transform="matrix(0.01953125,0,0,0.01953125,22.7734375,0)" xlink:href="#aT"/><use transform="matrix(0.01953125,0,0,0.01953125,57.8125,0)" xlink:href="#aI"/><use transform="matrix(0.01953125,0,0,0.01953125,81.1328125,0)" xlink:href="#aJ"/><use transform="matrix(0.01953125,0,0,0.01953125,99.375,0)" xlink:href="#bj"/><use transform="matrix(0.01953125,0,0,0.01953125,123.14453125,0)" xlink:href="#bk"/></g><g id="z"><use transform="matrix(0.01953125,0,0,0.01953125,0,0)" xlink:href="#aW"/><use transform="matrix(0.01953125,0,0,0.01953125,23.65234375,0)" xlink:href="#aU"/><use transform="matrix(0.01953125,0,0,0.01953125,47.63671875,0)" xlink:href="#aP"/><use transform="matrix(0.01953125,0,0,0.01953125,71.2890625,0)" xlink:href="#aR"/><use transform="matrix(0.01953125,0,0,0.01953125,86.34765625,0)" xlink:href="#aJ"/><use transform="matrix(0.01953125,0,0,0.01953125,104.58984375,0)" xlink:href="#bj"/><use transform="matrix(0.01953125,0,0,0.01953125,128.359375,0)" xlink:href="#bk"/></g><g id="A"><use transform="matrix(0.01953125,0,0,0.01953125,0,0)" xlink:href="#aT"/><use transform="matrix(0.01953125,0,0,0.01953125,35.0390625,0)" xlink:href="#bf"/><use transform="matrix(0.01953125,0,0,0.01953125,44.7265625,0)" xlink:href="#aV"/><use transform="matrix(0.01953125,0,0,0.01953125,68.359375,0)" xlink:href="#aP"/><use transform="matrix(0.01953125,0,0,0.01953125,92.01171875,0)" xlink:href="#aH"/><use transform="matrix(0.01953125,0,0,0.01953125,104.70703125,0)" xlink:href="#aI"/></g><g id="B"><use transform="matrix(0.01953125,0,0,0.01953125,0,0)" xlink:href="#aH"/><use transform="matrix(0.01953125,0,0,0.01953125,13.0859375,0)" xlink:href="#bf"/><use transform="matrix(0.01953125,0,0,0.01953125,22.7734375,0)" xlink:href="#aT"/><use transform="matrix(0.01953125,0,0,0.01953125,57.8125,0)" xlink:href="#aI"/><use transform="matrix(0.01953125,0,0,0.01953125,81.1328125,0)" xlink:href="#aJ"/><use transform="matrix(0.01953125,0,0,0.01953125,99.375,0)" xlink:href="#aU"/><use transform="matrix(0.01953125,0,0,0.01953125,123.359375,0)" xlink:href="#aO"/><use transform="matrix(0.01953125,0,0,0.01953125,137.59765625,0)" xlink:href="#aJ"/><use transform="matrix(0.01953125,0,0,0.01953125,155.83984375,0)" xlink:href="#aF"/><use transform="matrix(0.01953125,0,0,0.01953125,180.33203125,0)" xlink:href="#aG"/><use transform="matrix(0.01953125,0,0,0.01953125,202.20703125,0)" xlink:href="#aL"/></g><path d="M750-1118v229H516V0H217v-889H20v-229h197v-86c0-238 156-356 363-356 94 0 178 20 215 31l-54 226c-25-7-61-15-100-15-123-3-131 84-125 200h234" id="bl"/><path d="M428-647V0H128v-1118h283l4 231c63-156 176-245 348-245 232 0 384 159 384 421V0H847v-659c0-139-76-222-202-222-128 0-217 86-217 234" id="bm"/><g id="C"><use transform="matrix(0.01953125,0,0,0.01953125,0,0)" xlink:href="#bl"/><use transform="matrix(0.01953125,0,0,0.01953125,15.13671875,0)" xlink:href="#aC"/><use transform="matrix(0.01953125,0,0,0.01953125,38.359375,0)" xlink:href="#aY"/><use transform="matrix(0.01953125,0,0,0.01953125,61.89453125,0)" xlink:href="#aD"/><use transform="matrix(0.01953125,0,0,0.01953125,76.54296875,0)" xlink:href="#aB"/><use transform="matrix(0.01953125,0,0,0.01953125,96.93359375,0)" xlink:href="#bc"/><use transform="matrix(0.01953125,0,0,0.01953125,112.24609375,0)" xlink:href="#aE"/><use transform="matrix(0.01953125,0,0,0.01953125,136.07421875,0)" xlink:href="#aD"/><use transform="matrix(0.01953125,0,0,0.01953125,150.72265625,0)" xlink:href="#aZ"/><use transform="matrix(0.01953125,0,0,0.01953125,175.625,0)" xlink:href="#bc"/><use transform="matrix(0.01953125,0,0,0.01953125,192.20703125,0)" xlink:href="#bm"/><use transform="matrix(0.01953125,0,0,0.01953125,217.109375,0)" xlink:href="#ba"/></g><g id="D"><use transform="matrix(0.01953125,0,0,0.01953125,0,0)" xlink:href="#aR"/><use transform="matrix(0.01953125,0,0,0.01953125,14.39453125,0)" xlink:href="#aI"/><use transform="matrix(0.01953125,0,0,0.01953125,37.71484375,0)" xlink:href="#aH"/><use transform="matrix(0.01953125,0,0,0.01953125,50.80078125,0)" xlink:href="#aP"/><use transform="matrix(0.01953125,0,0,0.01953125,74.453125,0)" xlink:href="#aR"/><use transform="matrix(0.01953125,0,0,0.01953125,90.13671875,0)" xlink:href="#aV"/><use transform="matrix(0.01953125,0,0,0.01953125,113.76953125,0)" xlink:href="#aJ"/><use transform="matrix(0.01953125,0,0,0.01953125,133.359375,0)" xlink:href="#aK"/><use transform="matrix(0.01953125,0,0,0.01953125,154.4140625,0)" xlink:href="#aI"/><use transform="matrix(0.01953125,0,0,0.01953125,176.953125,0)" xlink:href="#aL"/></g><g id="E"><use transform="matrix(0.01953125,0,0,0.01953125,0,0)" xlink:href="#aR"/><use transform="matrix(0.01953125,0,0,0.01953125,14.39453125,0)" xlink:href="#aI"/><use transform="matrix(0.01953125,0,0,0.01953125,37.71484375,0)" xlink:href="#aH"/><use transform="matrix(0.01953125,0,0,0.01953125,50.80078125,0)" xlink:href="#aP"/><use transform="matrix(0.01953125,0,0,0.01953125,74.453125,0)" xlink:href="#aR"/><use transform="matrix(0.01953125,0,0,0.01953125,90.13671875,0)" xlink:href="#aV"/><use transform="matrix(0.01953125,0,0,0.01953125,113.76953125,0)" xlink:href="#aJ"/><use transform="matrix(0.01953125,0,0,0.01953125,133.359375,0)" xlink:href="#bf"/><use transform="matrix(0.01953125,0,0,0.01953125,143.046875,0)" xlink:href="#aF"/></g><g id="F"><use transform="matrix(0.01953125,0,0,0.01953125,0,0)" xlink:href="#aU"/><use transform="matrix(0.01953125,0,0,0.01953125,23.984375,0)" xlink:href="#aR"/><use transform="matrix(0.01953125,0,0,0.01953125,38.37890625,0)" xlink:href="#aF"/><use transform="matrix(0.01953125,0,0,0.01953125,62.87109375,0)" xlink:href="#aI"/><use transform="matrix(0.01953125,0,0,0.01953125,86.19140625,0)" xlink:href="#aR"/><use transform="matrix(0.01953125,0,0,0.01953125,101.25,0)" xlink:href="#aJ"/><use transform="matrix(0.01953125,0,0,0.01953125,120.83984375,0)" xlink:href="#bf"/><use transform="matrix(0.01953125,0,0,0.01953125,130.52734375,0)" xlink:href="#aH"/><use transform="matrix(0.01953125,0,0,0.01953125,143.22265625,0)" xlink:href="#aI"/><use transform="matrix(0.01953125,0,0,0.01953125,166.54296875,0)" xlink:href="#aT"/><use transform="matrix(0.01953125,0,0,0.01953125,201.58203125,0)" xlink:href="#aJ"/><use transform="matrix(0.01953125,0,0,0.01953125,221.171875,0)" xlink:href="#bf"/><use transform="matrix(0.01953125,0,0,0.01953125,230.859375,0)" xlink:href="#aF"/></g><g id="G"><use transform="matrix(0.01953125,0,0,0.01953125,0,0)" xlink:href="#aU"/><use transform="matrix(0.01953125,0,0,0.01953125,23.984375,0)" xlink:href="#aR"/><use transform="matrix(0.01953125,0,0,0.01953125,38.37890625,0)" xlink:href="#aF"/><use transform="matrix(0.01953125,0,0,0.01953125,62.87109375,0)" xlink:href="#aI"/><use transform="matrix(0.01953125,0,0,0.01953125,86.19140625,0)" xlink:href="#aR"/><use transform="matrix(0.01953125,0,0,0.01953125,101.25,0)" xlink:href="#aJ"/><use transform="matrix(0.01953125,0,0,0.01953125,120.83984375,0)" xlink:href="#bf"/><use transform="matrix(0.01953125,0,0,0.01953125,130.52734375,0)" xlink:href="#aF"/></g><g id="H"><use transform="matrix(0.01953125,0,0,0.01953125,0,0)" xlink:href="#bh"/><use transform="matrix(0.01953125,0,0,0.01953125,24.4921875,0)" xlink:href="#aR"/><use transform="matrix(0.01953125,0,0,0.01953125,38.88671875,0)" xlink:href="#aU"/><use transform="matrix(0.01953125,0,0,0.01953125,62.87109375,0)" xlink:href="#aF"/><use transform="matrix(0.01953125,0,0,0.01953125,87.36328125,0)" xlink:href="#aP"/><use transform="matrix(0.01953125,0,0,0.01953125,111.015625,0)" xlink:href="#bd"/><use transform="matrix(0.01953125,0,0,0.01953125,133.8671875,0)" xlink:href="#aH"/><use transform="matrix(0.01953125,0,0,0.01953125,146.953125,0)" xlink:href="#aJ"/><use transform="matrix(0.01953125,0,0,0.01953125,166.54296875,0)" xlink:href="#aK"/><use transform="matrix(0.01953125,0,0,0.01953125,187.59765625,0)" xlink:href="#aI"/><use transform="matrix(0.01953125,0,0,0.01953125,210.13671875,0)" xlink:href="#aL"/></g><g id="I"><use transform="matrix(0.01953125,0,0,0.01953125,0,0)" xlink:href="#aR"/><use transform="matrix(0.01953125,0,0,0.01953125,14.39453125,0)" xlink:href="#aI"/><use transform="matrix(0.01953125,0,0,0.01953125,37.71484375,0)" xlink:href="#aH"/><use transform="matrix(0.01953125,0,0,0.01953125,50.80078125,0)" xlink:href="#aP"/><use transform="matrix(0.01953125,0,0,0.01953125,74.453125,0)" xlink:href="#aR"/><use transform="matrix(0.01953125,0,0,0.01953125,90.13671875,0)" xlink:href="#aV"/><use transform="matrix(0.01953125,0,0,0.01953125,113.76953125,0)" xlink:href="#aJ"/><use transform="matrix(0.01953125,0,0,0.01953125,132.01171875,0)" xlink:href="#aF"/><use transform="matrix(0.01953125,0,0,0.01953125,156.50390625,0)" xlink:href="#aG"/><use transform="matrix(0.01953125,0,0,0.01953125,178.96484375,0)" xlink:href="#aH"/><use transform="matrix(0.01953125,0,0,0.01953125,191.66015625,0)" xlink:href="#aI"/><use transform="matrix(0.01953125,0,0,0.01953125,214.98046875,0)" xlink:href="#aJ"/><use transform="matrix(0.01953125,0,0,0.01953125,234.5703125,0)" xlink:href="#aK"/><use transform="matrix(0.01953125,0,0,0.01953125,255.625,0)" xlink:href="#aI"/><use transform="matrix(0.01953125,0,0,0.01953125,278.1640625,0)" xlink:href="#aL"/></g><g id="J"><use transform="matrix(0.01953125,0,0,0.01953125,0,0)" xlink:href="#aR"/><use transform="matrix(0.01953125,0,0,0.01953125,14.39453125,0)" xlink:href="#aI"/><use transform="matrix(0.01953125,0,0,0.01953125,37.71484375,0)" xlink:href="#aH"/><use transform="matrix(0.01953125,0,0,0.01953125,50.80078125,0)" xlink:href="#aP"/><use transform="matrix(0.01953125,0,0,0.01953125,74.453125,0)" xlink:href="#aR"/><use transform="matrix(0.01953125,0,0,0.01953125,90.13671875,0)" xlink:href="#aV"/><use transform="matrix(0.01953125,0,0,0.01953125,113.76953125,0)" xlink:href="#aJ"/><use transform="matrix(0.01953125,0,0,0.01953125,132.01171875,0)" xlink:href="#aH"/><use transform="matrix(0.01953125,0,0,0.01953125,145.09765625,0)" xlink:href="#bf"/><use transform="matrix(0.01953125,0,0,0.01953125,154.78515625,0)" xlink:href="#aT"/><use transform="matrix(0.01953125,0,0,0.01953125,189.82421875,0)" xlink:href="#aI"/><use transform="matrix(0.01953125,0,0,0.01953125,213.14453125,0)" xlink:href="#aJ"/><use transform="matrix(0.01953125,0,0,0.01953125,232.734375,0)" xlink:href="#aK"/><use transform="matrix(0.01953125,0,0,0.01953125,253.7890625,0)" xlink:href="#aI"/><use transform="matrix(0.01953125,0,0,0.01953125,276.328125,0)" xlink:href="#aL"/></g><g id="K"><use transform="matrix(0.01953125,0,0,0.01953125,0,0)" xlink:href="#aR"/><use transform="matrix(0.01953125,0,0,0.01953125,14.39453125,0)" xlink:href="#aI"/><use transform="matrix(0.01953125,0,0,0.01953125,37.71484375,0)" xlink:href="#aH"/><use transform="matrix(0.01953125,0,0,0.01953125,50.80078125,0)" xlink:href="#aP"/><use transform="matrix(0.01953125,0,0,0.01953125,74.453125,0)" xlink:href="#aR"/><use transform="matrix(0.01953125,0,0,0.01953125,90.13671875,0)" xlink:href="#aV"/><use transform="matrix(0.01953125,0,0,0.01953125,113.76953125,0)" xlink:href="#aJ"/><use transform="matrix(0.01953125,0,0,0.01953125,133.359375,0)" xlink:href="#aR"/><use transform="matrix(0.01953125,0,0,0.01953125,147.75390625,0)" xlink:href="#aI"/><use transform="matrix(0.01953125,0,0,0.01953125,171.46484375,0)" xlink:href="#aG"/><use transform="matrix(0.01953125,0,0,0.01953125,193.92578125,0)" xlink:href="#be"/><use transform="matrix(0.01953125,0,0,0.01953125,215.0390625,0)" xlink:href="#aU"/><use transform="matrix(0.01953125,0,0,0.01953125,239.0234375,0)" xlink:href="#aV"/></g><g id="L"><use transform="matrix(0.01953125,0,0,0.01953125,0,0)" xlink:href="#aS"/><use transform="matrix(0.01953125,0,0,0.01953125,24.4921875,0)" xlink:href="#aP"/><use transform="matrix(0.01953125,0,0,0.01953125,48.14453125,0)" xlink:href="#aG"/><use transform="matrix(0.01953125,0,0,0.01953125,70.60546875,0)" xlink:href="#aV"/><use transform="matrix(0.01953125,0,0,0.01953125,94.23828125,0)" xlink:href="#aH"/><use transform="matrix(0.01953125,0,0,0.01953125,107.32421875,0)" xlink:href="#bf"/><use transform="matrix(0.01953125,0,0,0.01953125,117.01171875,0)" xlink:href="#aH"/><use transform="matrix(0.01953125,0,0,0.01953125,130.87890625,0)" xlink:href="#aL"/><use transform="matrix(0.01953125,0,0,0.01953125,150.1953125,0)" xlink:href="#aJ"/><use transform="matrix(0.01953125,0,0,0.01953125,169.78515625,0)" xlink:href="#aR"/><use transform="matrix(0.01953125,0,0,0.01953125,184.1796875,0)" xlink:href="#aI"/><use transform="matrix(0.01953125,0,0,0.01953125,207.5,0)" xlink:href="#aH"/><use transform="matrix(0.01953125,0,0,0.01953125,220.5859375,0)" xlink:href="#aP"/><use transform="matrix(0.01953125,0,0,0.01953125,244.23828125,0)" xlink:href="#aR"/><use transform="matrix(0.01953125,0,0,0.01953125,259.921875,0)" xlink:href="#aV"/><use transform="matrix(0.01953125,0,0,0.01953125,283.5546875,0)" xlink:href="#aI"/><use transform="matrix(0.01953125,0,0,0.01953125,306.875,0)" xlink:href="#aF"/></g><g id="M"><use transform="matrix(0.01953125,0,0,0.01953125,0,0)" xlink:href="#aR"/><use transform="matrix(0.01953125,0,0,0.01953125,14.39453125,0)" xlink:href="#aI"/><use transform="matrix(0.01953125,0,0,0.01953125,37.71484375,0)" xlink:href="#aO"/><use transform="matrix(0.01953125,0,0,0.01953125,52.51953125,0)" xlink:href="#aP"/><use transform="matrix(0.01953125,0,0,0.01953125,76.171875,0)" xlink:href="#aV"/><use transform="matrix(0.01953125,0,0,0.01953125,99.8046875,0)" xlink:href="#aF"/><use transform="matrix(0.01953125,0,0,0.01953125,124.296875,0)" xlink:href="#aJ"/><use transform="matrix(0.01953125,0,0,0.01953125,142.5390625,0)" xlink:href="#aG"/><use transform="matrix(0.01953125,0,0,0.01953125,165,0)" xlink:href="#aT"/><use transform="matrix(0.01953125,0,0,0.01953125,200.0390625,0)" xlink:href="#aU"/><use transform="matrix(0.01953125,0,0,0.01953125,224.0234375,0)" xlink:href="#aP"/><use transform="matrix(0.01953125,0,0,0.01953125,247.67578125,0)" xlink:href="#aV"/><use transform="matrix(0.01953125,0,0,0.01953125,271.30859375,0)" xlink:href="#aH"/></g><g id="N"><use transform="matrix(0.01953125,0,0,0.01953125,0,0)" xlink:href="#aA"/><use transform="matrix(0.01953125,0,0,0.01953125,36.50390625,0)" xlink:href="#aE"/><use transform="matrix(0.01953125,0,0,0.01953125,60.33203125,0)" xlink:href="#aD"/><use transform="matrix(0.01953125,0,0,0.01953125,75.17578125,0)" xlink:href="#aC"/><use transform="matrix(0.01953125,0,0,0.01953125,98.3984375,0)" xlink:href="#ay"/><use transform="matrix(0.01953125,0,0,0.01953125,123.61328125,0)" xlink:href="#aC"/><use transform="matrix(0.01953125,0,0,0.01953125,146.8359375,0)" xlink:href="#aD"/><use transform="matrix(0.01953125,0,0,0.01953125,161.6796875,0)" xlink:href="#aC"/></g><g id="O"><use transform="matrix(0.01953125,0,0,0.01953125,0,0)" xlink:href="#aQ"/><use transform="matrix(0.01953125,0,0,0.01953125,9.6875,0)" xlink:href="#aU"/><use transform="matrix(0.01953125,0,0,0.01953125,33.671875,0)" xlink:href="#bg"/><use transform="matrix(0.01953125,0,0,0.01953125,58.203125,0)" xlink:href="#aJ"/><use transform="matrix(0.01953125,0,0,0.01953125,77.79296875,0)" xlink:href="#bf"/><use transform="matrix(0.01953125,0,0,0.01953125,87.48046875,0)" xlink:href="#aF"/></g><path d="M428-1490V0H128v-1490h300" id="bn"/><g id="P"><use transform="matrix(0.01953125,0,0,0.01953125,0,0)" xlink:href="#bl"/><use transform="matrix(0.01953125,0,0,0.01953125,15.13671875,0)" xlink:href="#aC"/><use transform="matrix(0.01953125,0,0,0.01953125,38.359375,0)" xlink:href="#aY"/><use transform="matrix(0.01953125,0,0,0.01953125,61.89453125,0)" xlink:href="#aD"/><use transform="matrix(0.01953125,0,0,0.01953125,76.54296875,0)" xlink:href="#aB"/><use transform="matrix(0.01953125,0,0,0.01953125,95.5859375,0)" xlink:href="#ba"/><use transform="matrix(0.01953125,0,0,0.01953125,117.98828125,0)" xlink:href="#aC"/><use transform="matrix(0.01953125,0,0,0.01953125,141.2109375,0)" xlink:href="#bn"/><use transform="matrix(0.01953125,0,0,0.01953125,152.05078125,0)" xlink:href="#aE"/><use transform="matrix(0.01953125,0,0,0.01953125,175.87890625,0)" xlink:href="#ba"/></g><g id="Q"><use transform="matrix(0.01953125,0,0,0.01953125,0,0)" xlink:href="#be"/><use transform="matrix(0.01953125,0,0,0.01953125,21.11328125,0)" xlink:href="#aG"/><use transform="matrix(0.01953125,0,0,0.01953125,43.57421875,0)" xlink:href="#aQ"/><use transform="matrix(0.01953125,0,0,0.01953125,53.26171875,0)" xlink:href="#aI"/><use transform="matrix(0.01953125,0,0,0.01953125,76.58203125,0)" xlink:href="#be"/><use transform="matrix(0.01953125,0,0,0.01953125,97.6953125,0)" xlink:href="#aJ"/><use transform="matrix(0.01953125,0,0,0.01953125,117.28515625,0)" xlink:href="#aK"/><use transform="matrix(0.01953125,0,0,0.01953125,138.33984375,0)" xlink:href="#aI"/><use transform="matrix(0.01953125,0,0,0.01953125,160.87890625,0)" xlink:href="#aL"/></g><g id="R"><use transform="matrix(0.01953125,0,0,0.01953125,0,0)" xlink:href="#be"/><use transform="matrix(0.01953125,0,0,0.01953125,21.11328125,0)" xlink:href="#aI"/><use transform="matrix(0.01953125,0,0,0.01953125,44.43359375,0)" xlink:href="#be"/><use transform="matrix(0.01953125,0,0,0.01953125,65.546875,0)" xlink:href="#be"/><use transform="matrix(0.01953125,0,0,0.01953125,86.66015625,0)" xlink:href="#bf"/><use transform="matrix(0.01953125,0,0,0.01953125,96.34765625,0)" xlink:href="#aU"/><use transform="matrix(0.01953125,0,0,0.01953125,120.33203125,0)" xlink:href="#aV"/><use transform="matrix(0.01953125,0,0,0.01953125,143.96484375,0)" xlink:href="#aJ"/><use transform="matrix(0.01953125,0,0,0.01953125,163.5546875,0)" xlink:href="#aK"/><use transform="matrix(0.01953125,0,0,0.01953125,184.609375,0)" xlink:href="#aI"/><use transform="matrix(0.01953125,0,0,0.01953125,207.1484375,0)" xlink:href="#aL"/></g><g id="S"><use transform="matrix(0.01953125,0,0,0.01953125,0,0)" xlink:href="#bh"/><use transform="matrix(0.01953125,0,0,0.01953125,24.8828125,0)" xlink:href="#aG"/><use transform="matrix(0.01953125,0,0,0.01953125,46.7578125,0)" xlink:href="#aL"/><use transform="matrix(0.01953125,0,0,0.01953125,69.23828125,0)" xlink:href="#aT"/><use transform="matrix(0.01953125,0,0,0.01953125,104.27734375,0)" xlink:href="#aI"/><use transform="matrix(0.01953125,0,0,0.01953125,127.59765625,0)" xlink:href="#aV"/><use transform="matrix(0.01953125,0,0,0.01953125,151.23046875,0)" xlink:href="#aH"/><use transform="matrix(0.01953125,0,0,0.01953125,164.31640625,0)" xlink:href="#aJ"/><use transform="matrix(0.01953125,0,0,0.01953125,183.90625,0)" xlink:href="#aT"/><use transform="matrix(0.01953125,0,0,0.01953125,218.9453125,0)" xlink:href="#aI"/><use transform="matrix(0.01953125,0,0,0.01953125,242.265625,0)" xlink:href="#aH"/><use transform="matrix(0.01953125,0,0,0.01953125,255.3515625,0)" xlink:href="#aW"/><use transform="matrix(0.01953125,0,0,0.01953125,279.00390625,0)" xlink:href="#aU"/><use transform="matrix(0.01953125,0,0,0.01953125,302.98828125,0)" xlink:href="#aF"/></g><g id="T"><use transform="matrix(0.01953125,0,0,0.01953125,0,0)" xlink:href="#aU"/><use transform="matrix(0.01953125,0,0,0.01953125,23.984375,0)" xlink:href="#aR"/><use transform="matrix(0.01953125,0,0,0.01953125,38.37890625,0)" xlink:href="#aF"/><use transform="matrix(0.01953125,0,0,0.01953125,62.87109375,0)" xlink:href="#aI"/><use transform="matrix(0.01953125,0,0,0.01953125,86.19140625,0)" xlink:href="#aR"/><use transform="matrix(0.01953125,0,0,0.01953125,101.25,0)" xlink:href="#aJ"/><use transform="matrix(0.01953125,0,0,0.01953125,119.4921875,0)" xlink:href="#be"/><use transform="matrix(0.01953125,0,0,0.01953125,140.60546875,0)" xlink:href="#aH"/><use transform="matrix(0.01953125,0,0,0.01953125,153.88671875,0)" xlink:href="#aG"/><use transform="matrix(0.01953125,0,0,0.01953125,176.34765625,0)" xlink:href="#aH"/><use transform="matrix(0.01953125,0,0,0.01953125,189.43359375,0)" xlink:href="#aP"/><use transform="matrix(0.01953125,0,0,0.01953125,213.0859375,0)" xlink:href="#be"/></g><g id="U"><use transform="matrix(0.01953125,0,0,0.01953125,0,0)" xlink:href="#aS"/><use transform="matrix(0.01953125,0,0,0.01953125,24.4921875,0)" xlink:href="#aP"/><use transform="matrix(0.01953125,0,0,0.01953125,48.14453125,0)" xlink:href="#aG"/><use transform="matrix(0.01953125,0,0,0.01953125,70.60546875,0)" xlink:href="#aV"/><use transform="matrix(0.01953125,0,0,0.01953125,94.23828125,0)" xlink:href="#aH"/><use transform="matrix(0.01953125,0,0,0.01953125,107.32421875,0)" xlink:href="#bf"/><use transform="matrix(0.01953125,0,0,0.01953125,117.01171875,0)" xlink:href="#aH"/><use transform="matrix(0.01953125,0,0,0.01953125,130.87890625,0)" xlink:href="#aL"/></g><g id="V"><use transform="matrix(0.01953125,0,0,0.01953125,0,0)" xlink:href="#aP"/><use transform="matrix(0.01953125,0,0,0.01953125,23.65234375,0)" xlink:href="#aV"/><use transform="matrix(0.01953125,0,0,0.01953125,47.28515625,0)" xlink:href="#bf"/><use transform="matrix(0.01953125,0,0,0.01953125,56.97265625,0)" xlink:href="#aH"/><use transform="matrix(0.01953125,0,0,0.01953125,70.05859375,0)" xlink:href="#aJ"/><use transform="matrix(0.01953125,0,0,0.01953125,89.6484375,0)" xlink:href="#bh"/><use transform="matrix(0.01953125,0,0,0.01953125,114.140625,0)" xlink:href="#aR"/><use transform="matrix(0.01953125,0,0,0.01953125,129.82421875,0)" xlink:href="#bf"/><use transform="matrix(0.01953125,0,0,0.01953125,139.51171875,0)" xlink:href="#bd"/><use transform="matrix(0.01953125,0,0,0.01953125,162.36328125,0)" xlink:href="#aI"/></g><g id="W"><use transform="matrix(0.01953125,0,0,0.01953125,0,0)" xlink:href="#aF"/><use transform="matrix(0.01953125,0,0,0.01953125,24.4921875,0)" xlink:href="#bf"/><use transform="matrix(0.01953125,0,0,0.01953125,34.1796875,0)" xlink:href="#be"/><use transform="matrix(0.01953125,0,0,0.01953125,55.29296875,0)" xlink:href="#bd"/><use transform="matrix(0.01953125,0,0,0.01953125,78.14453125,0)" xlink:href="#aU"/><use transform="matrix(0.01953125,0,0,0.01953125,102.12890625,0)" xlink:href="#aP"/><use transform="matrix(0.01953125,0,0,0.01953125,125.78125,0)" xlink:href="#aV"/><use transform="matrix(0.01953125,0,0,0.01953125,149.4140625,0)" xlink:href="#aH"/><use transform="matrix(0.01953125,0,0,0.01953125,162.5,0)" xlink:href="#aJ"/><use transform="matrix(0.01953125,0,0,0.01953125,180.7421875,0)" xlink:href="#aG"/><use transform="matrix(0.01953125,0,0,0.01953125,203.203125,0)" xlink:href="#aT"/><use transform="matrix(0.01953125,0,0,0.01953125,238.2421875,0)" xlink:href="#aU"/><use transform="matrix(0.01953125,0,0,0.01953125,262.2265625,0)" xlink:href="#aP"/><use transform="matrix(0.01953125,0,0,0.01953125,285.87890625,0)" xlink:href="#aV"/><use transform="matrix(0.01953125,0,0,0.01953125,309.51171875,0)" xlink:href="#aH"/></g><path d="M65 0l393-574-370-544h210c88 136 192 297 267 435 67-142 176-302 264-435h206L661-564 1053 0H844c-94-144-206-310-287-458C484-308 366-142 273 0H65" id="bo"/><g id="X"><use transform="matrix(0.01953125,0,0,0.01953125,0,0)" xlink:href="#aH"/><use transform="matrix(0.01953125,0,0,0.01953125,13.28125,0)" xlink:href="#aG"/><use transform="matrix(0.01953125,0,0,0.01953125,35.7421875,0)" xlink:href="#bo"/><use transform="matrix(0.01953125,0,0,0.01953125,57.578125,0)" xlink:href="#aJ"/><use transform="matrix(0.01953125,0,0,0.01953125,75.8203125,0)" xlink:href="#aG"/><use transform="matrix(0.01953125,0,0,0.01953125,98.28125,0)" xlink:href="#aT"/><use transform="matrix(0.01953125,0,0,0.01953125,133.3203125,0)" xlink:href="#aU"/><use transform="matrix(0.01953125,0,0,0.01953125,157.3046875,0)" xlink:href="#aP"/><use transform="matrix(0.01953125,0,0,0.01953125,180.95703125,0)" xlink:href="#aV"/><use transform="matrix(0.01953125,0,0,0.01953125,204.58984375,0)" xlink:href="#aH"/></g><g id="Y"><use transform="matrix(0.01953125,0,0,0.01953125,0,0)" xlink:href="#aH"/><use transform="matrix(0.01953125,0,0,0.01953125,12.6953125,0)" xlink:href="#aU"/><use transform="matrix(0.01953125,0,0,0.01953125,36.6796875,0)" xlink:href="#aH"/><use transform="matrix(0.01953125,0,0,0.01953125,49.9609375,0)" xlink:href="#aG"/><use transform="matrix(0.01953125,0,0,0.01953125,72.421875,0)" xlink:href="#aQ"/><use transform="matrix(0.01953125,0,0,0.01953125,82.109375,0)" xlink:href="#aJ"/><use transform="matrix(0.01953125,0,0,0.01953125,100.3515625,0)" xlink:href="#aG"/><use transform="matrix(0.01953125,0,0,0.01953125,122.8125,0)" xlink:href="#aT"/><use transform="matrix(0.01953125,0,0,0.01953125,157.8515625,0)" xlink:href="#aU"/><use transform="matrix(0.01953125,0,0,0.01953125,181.8359375,0)" xlink:href="#aP"/><use transform="matrix(0.01953125,0,0,0.01953125,205.48828125,0)" xlink:href="#aV"/><use transform="matrix(0.01953125,0,0,0.01953125,229.12109375,0)" xlink:href="#aH"/></g><path d="M361 0L31-1118h315c68 295 127 523 188 845 63-317 128-551 199-845h276c71 296 131 525 196 846 57-321 119-552 186-846h319L1378 0h-305c-73-261-148-486-204-771C813-484 740-261 666 0H361" id="bp"/><path d="M754 19C571 19 479-89 437-179h-14V0H128v-1490h300v560h9c41-89 129-202 319-202 248 0 453 193 453 575 0 372-197 576-455 576zm-92-241c156 0 240-139 240-336 0-196-83-334-240-334-154 0-241 131-241 334 0 202 88 336 241 336" id="bq"/><path d="M120 396l69-226c123 42 245 23 254-107l8-60L31-1118h319c87 288 199 559 259 872 72-308 185-583 277-872h315L726 132c-68 181-186 294-410 294-79 0-153-13-196-30" id="br"/><g id="Z"><use transform="matrix(0.01953125,0,0,0.01953125,0,0)" xlink:href="#bl"/><use transform="matrix(0.01953125,0,0,0.01953125,15.13671875,0)" xlink:href="#aC"/><use transform="matrix(0.01953125,0,0,0.01953125,38.359375,0)" xlink:href="#aY"/><use transform="matrix(0.01953125,0,0,0.01953125,61.89453125,0)" xlink:href="#aD"/><use transform="matrix(0.01953125,0,0,0.01953125,76.54296875,0)" xlink:href="#aB"/><use transform="matrix(0.01953125,0,0,0.01953125,95.5859375,0)" xlink:href="#bp"/><use transform="matrix(0.01953125,0,0,0.01953125,129.04296875,0)" xlink:href="#aE"/><use transform="matrix(0.01953125,0,0,0.01953125,152.87109375,0)" xlink:href="#bq"/><use transform="matrix(0.01953125,0,0,0.01953125,178.0859375,0)" xlink:href="#aB"/><use transform="matrix(0.01953125,0,0,0.01953125,197.12890625,0)" xlink:href="#aC"/><use transform="matrix(0.01953125,0,0,0.01953125,220.3515625,0)" xlink:href="#bm"/><use transform="matrix(0.01953125,0,0,0.01953125,245.25390625,0)" xlink:href="#aC"/><use transform="matrix(0.01953125,0,0,0.01953125,268.4765625,0)" xlink:href="#bn"/><use transform="matrix(0.01953125,0,0,0.01953125,279.7265625,0)" xlink:href="#br"/><use transform="matrix(0.01953125,0,0,0.01953125,304.4921875,0)" xlink:href="#aD"/><use transform="matrix(0.01953125,0,0,0.01953125,319.140625,0)" xlink:href="#az"/><use transform="matrix(0.01953125,0,0,0.01953125,329.98046875,0)" xlink:href="#aY"/><use transform="matrix(0.01953125,0,0,0.01953125,353.515625,0)" xlink:href="#ba"/></g><path d="M458 0L52-1490h194c108 439 233 855 324 1313 92-459 221-873 331-1313h216c110 438 234 854 330 1307 92-455 216-869 323-1307h196L1558 0h-221l-256-944c-26-95-50-200-73-331-22 122-44 223-73 331L680 0H458" id="bs"/><path d="M677 24c-213 0-288-135-325-197h-20V0H158v-1490h180v551h14c37-59 106-193 324-193 279 0 474 222 474 576 0 356-194 580-473 580zm-27-161c209 0 317-186 317-421 0-232-105-413-317-413-206 0-314 166-314 413 0 249 111 421 314 421" id="bt"/><g id="aa"><use transform="matrix(0.01953125,0,0,0.01953125,0,0)" xlink:href="#bs"/><use transform="matrix(0.01953125,0,0,0.01953125,37.3828125,0)" xlink:href="#aI"/><use transform="matrix(0.01953125,0,0,0.01953125,60.703125,0)" xlink:href="#bt"/><use transform="matrix(0.01953125,0,0,0.01953125,85.1953125,0)" xlink:href="#aJ"/><use transform="matrix(0.01953125,0,0,0.01953125,103.4375,0)" xlink:href="#aG"/><use transform="matrix(0.01953125,0,0,0.01953125,125.8984375,0)" xlink:href="#aV"/><use transform="matrix(0.01953125,0,0,0.01953125,149.53125,0)" xlink:href="#aG"/><use transform="matrix(0.01953125,0,0,0.01953125,171.9921875,0)" xlink:href="#aQ"/><use transform="matrix(0.01953125,0,0,0.01953125,181.875,0)" xlink:href="#aL"/><use transform="matrix(0.01953125,0,0,0.01953125,204.94140625,0)" xlink:href="#aH"/><use transform="matrix(0.01953125,0,0,0.01953125,218.02734375,0)" xlink:href="#bf"/><use transform="matrix(0.01953125,0,0,0.01953125,227.71484375,0)" xlink:href="#bd"/><use transform="matrix(0.01953125,0,0,0.01953125,250.56640625,0)" xlink:href="#be"/><use transform="matrix(0.01953125,0,0,0.01953125,271.6796875,0)" xlink:href="#aJ"/><use transform="matrix(0.01953125,0,0,0.01953125,291.26953125,0)" xlink:href="#aK"/><use transform="matrix(0.01953125,0,0,0.01953125,312.32421875,0)" xlink:href="#aI"/><use transform="matrix(0.01953125,0,0,0.01953125,334.86328125,0)" xlink:href="#aL"/></g><path d="M481 0L54-1118h197c107 314 236 620 325 951 87-331 217-637 324-951h197L670 0H481" id="bu"/><g id="ab"><use transform="matrix(0.01953125,0,0,0.01953125,0,0)" xlink:href="#bh"/><use transform="matrix(0.01953125,0,0,0.01953125,24.8828125,0)" xlink:href="#aG"/><use transform="matrix(0.01953125,0,0,0.01953125,47.34375,0)" xlink:href="#bg"/><use transform="matrix(0.01953125,0,0,0.01953125,71.875,0)" xlink:href="#aI"/><use transform="matrix(0.01953125,0,0,0.01953125,94.4140625,0)" xlink:href="#bu"/><use transform="matrix(0.01953125,0,0,0.01953125,116.89453125,0)" xlink:href="#bf"/><use transform="matrix(0.01953125,0,0,0.01953125,126.58203125,0)" xlink:href="#aI"/><use transform="matrix(0.01953125,0,0,0.01953125,149.1796875,0)" xlink:href="#aX"/><use transform="matrix(0.01953125,0,0,0.01953125,181.9140625,0)" xlink:href="#aJ"/><use transform="matrix(0.01953125,0,0,0.01953125,201.50390625,0)" xlink:href="#bf"/><use transform="matrix(0.01953125,0,0,0.01953125,211.19140625,0)" xlink:href="#aF"/></g><g id="ac"><use transform="matrix(0.01953125,0,0,0.01953125,0,0)" xlink:href="#bh"/><use transform="matrix(0.01953125,0,0,0.01953125,24.8828125,0)" xlink:href="#aG"/><use transform="matrix(0.01953125,0,0,0.01953125,47.34375,0)" xlink:href="#bg"/><use transform="matrix(0.01953125,0,0,0.01953125,71.875,0)" xlink:href="#aI"/><use transform="matrix(0.01953125,0,0,0.01953125,95.1953125,0)" xlink:href="#aJ"/><use transform="matrix(0.01953125,0,0,0.01953125,114.78515625,0)" xlink:href="#aV"/><use transform="matrix(0.01953125,0,0,0.01953125,138.41796875,0)" xlink:href="#aG"/><use transform="matrix(0.01953125,0,0,0.01953125,160.87890625,0)" xlink:href="#aT"/><use transform="matrix(0.01953125,0,0,0.01953125,195.91796875,0)" xlink:href="#aI"/></g><g id="ad"><use transform="matrix(0.01953125,0,0,0.01953125,0,0)" xlink:href="#aP"/><use transform="matrix(0.01953125,0,0,0.01953125,23.65234375,0)" xlink:href="#aH"/><use transform="matrix(0.01953125,0,0,0.01953125,36.73828125,0)" xlink:href="#aT"/><use transform="matrix(0.01953125,0,0,0.01953125,71.77734375,0)" xlink:href="#aJ"/><use transform="matrix(0.01953125,0,0,0.01953125,90.01953125,0)" xlink:href="#be"/><use transform="matrix(0.01953125,0,0,0.01953125,111.1328125,0)" xlink:href="#aU"/><use transform="matrix(0.01953125,0,0,0.01953125,135.1171875,0)" xlink:href="#aP"/><use transform="matrix(0.01953125,0,0,0.01953125,158.76953125,0)" xlink:href="#aR"/><use transform="matrix(0.01953125,0,0,0.01953125,173.1640625,0)" xlink:href="#bd"/><use transform="matrix(0.01953125,0,0,0.01953125,196.015625,0)" xlink:href="#aI"/></g><g id="ae"><use transform="matrix(0.01953125,0,0,0.01953125,0,0)" xlink:href="#aP"/><use transform="matrix(0.01953125,0,0,0.01953125,23.65234375,0)" xlink:href="#aH"/><use transform="matrix(0.01953125,0,0,0.01953125,36.73828125,0)" xlink:href="#aT"/><use transform="matrix(0.01953125,0,0,0.01953125,71.77734375,0)" xlink:href="#aJ"/><use transform="matrix(0.01953125,0,0,0.01953125,90.01953125,0)" xlink:href="#bd"/><use transform="matrix(0.01953125,0,0,0.01953125,113.26171875,0)" xlink:href="#aG"/><use transform="matrix(0.01953125,0,0,0.01953125,135.72265625,0)" xlink:href="#aT"/><use transform="matrix(0.01953125,0,0,0.01953125,170.76171875,0)" xlink:href="#bh"/><use transform="matrix(0.01953125,0,0,0.01953125,195.64453125,0)" xlink:href="#aG"/><use transform="matrix(0.01953125,0,0,0.01953125,218.10546875,0)" xlink:href="#bf"/><use transform="matrix(0.01953125,0,0,0.01953125,227.79296875,0)" xlink:href="#bg"/><use transform="matrix(0.01953125,0,0,0.01953125,252.32421875,0)" xlink:href="#aV"/></g><g id="af"><use transform="matrix(0.01953125,0,0,0.01953125,0,0)" xlink:href="#aP"/><use transform="matrix(0.01953125,0,0,0.01953125,23.65234375,0)" xlink:href="#aH"/><use transform="matrix(0.01953125,0,0,0.01953125,36.73828125,0)" xlink:href="#aT"/><use transform="matrix(0.01953125,0,0,0.01953125,71.77734375,0)" xlink:href="#aJ"/><use transform="matrix(0.01953125,0,0,0.01953125,90.01953125,0)" xlink:href="#bd"/><use transform="matrix(0.01953125,0,0,0.01953125,112.87109375,0)" xlink:href="#aU"/><use transform="matrix(0.01953125,0,0,0.01953125,136.85546875,0)" xlink:href="#aV"/><use transform="matrix(0.01953125,0,0,0.01953125,160.48828125,0)" xlink:href="#aH"/><use transform="matrix(0.01953125,0,0,0.01953125,173.18359375,0)" xlink:href="#aI"/><use transform="matrix(0.01953125,0,0,0.01953125,196.50390625,0)" xlink:href="#aV"/><use transform="matrix(0.01953125,0,0,0.01953125,220.13671875,0)" xlink:href="#aH"/></g><g id="ag"><use transform="matrix(0.01953125,0,0,0.01953125,0,0)" xlink:href="#aF"/><use transform="matrix(0.01953125,0,0,0.01953125,24.4921875,0)" xlink:href="#aI"/><use transform="matrix(0.01953125,0,0,0.01953125,47.03125,0)" xlink:href="#bu"/><use transform="matrix(0.01953125,0,0,0.01953125,69.51171875,0)" xlink:href="#bf"/><use transform="matrix(0.01953125,0,0,0.01953125,79.19921875,0)" xlink:href="#bd"/><use transform="matrix(0.01953125,0,0,0.01953125,102.05078125,0)" xlink:href="#aI"/><use transform="matrix(0.01953125,0,0,0.01953125,125.37109375,0)" xlink:href="#aJ"/><use transform="matrix(0.01953125,0,0,0.01953125,143.61328125,0)" xlink:href="#aH"/><use transform="matrix(0.01953125,0,0,0.01953125,157.48046875,0)" xlink:href="#aL"/><use transform="matrix(0.01953125,0,0,0.01953125,179.9609375,0)" xlink:href="#bh"/><use transform="matrix(0.01953125,0,0,0.01953125,204.453125,0)" xlink:href="#aI"/></g><g id="ah"><use transform="matrix(0.01953125,0,0,0.01953125,0,0)" xlink:href="#aF"/><use transform="matrix(0.01953125,0,0,0.01953125,24.4921875,0)" xlink:href="#aP"/><use transform="matrix(0.01953125,0,0,0.01953125,48.14453125,0)" xlink:href="#aR"/><use transform="matrix(0.01953125,0,0,0.01953125,63.203125,0)" xlink:href="#aG"/><use transform="matrix(0.01953125,0,0,0.01953125,85.6640625,0)" xlink:href="#aH"/><use transform="matrix(0.01953125,0,0,0.01953125,98.75,0)" xlink:href="#bf"/><use transform="matrix(0.01953125,0,0,0.01953125,108.4375,0)" xlink:href="#aU"/><use transform="matrix(0.01953125,0,0,0.01953125,132.421875,0)" xlink:href="#aV"/><use transform="matrix(0.01953125,0,0,0.01953125,156.0546875,0)" xlink:href="#aJ"/><use transform="matrix(0.01953125,0,0,0.01953125,174.296875,0)" xlink:href="#be"/><use transform="matrix(0.01953125,0,0,0.01953125,195.41015625,0)" xlink:href="#aI"/><use transform="matrix(0.01953125,0,0,0.01953125,218.73046875,0)" xlink:href="#bd"/><use transform="matrix(0.01953125,0,0,0.01953125,241.58203125,0)" xlink:href="#aU"/><use transform="matrix(0.01953125,0,0,0.01953125,265.56640625,0)" xlink:href="#aV"/><use transform="matrix(0.01953125,0,0,0.01953125,289.19921875,0)" xlink:href="#aF"/><use transform="matrix(0.01953125,0,0,0.01953125,313.69140625,0)" xlink:href="#be"/></g><path d="M128 418v-1536h295v188h14c41-89 129-202 319-202 248 0 453 193 453 575 0 372-197 576-455 576-183 0-275-108-317-198h-9v597H128zm534-640c156 0 240-139 240-336 0-196-83-334-240-334-154 0-241 131-241 334 0 202 88 336 241 336" id="bv"/><g id="ai"><use transform="matrix(0.01953125,0,0,0.01953125,0,0)" xlink:href="#ay"/><use transform="matrix(0.01953125,0,0,0.01953125,25.21484375,0)" xlink:href="#az"/><use transform="matrix(0.01953125,0,0,0.01953125,36.0546875,0)" xlink:href="#aA"/><use transform="matrix(0.01953125,0,0,0.01953125,72.55859375,0)" xlink:href="#aB"/><use transform="matrix(0.01953125,0,0,0.01953125,92.94921875,0)" xlink:href="#bv"/><use transform="matrix(0.01953125,0,0,0.01953125,118.1640625,0)" xlink:href="#bc"/><use transform="matrix(0.01953125,0,0,0.01953125,133.4765625,0)" xlink:href="#bb"/><use transform="matrix(0.01953125,0,0,0.01953125,158.0078125,0)" xlink:href="#ay"/><use transform="matrix(0.01953125,0,0,0.01953125,183.22265625,0)" xlink:href="#aZ"/><use transform="matrix(0.01953125,0,0,0.01953125,208.125,0)" xlink:href="#aY"/><use transform="matrix(0.01953125,0,0,0.01953125,231.66015625,0)" xlink:href="#aD"/><use transform="matrix(0.01953125,0,0,0.01953125,246.015625,0)" xlink:href="#ba"/></g><g id="aj"><use transform="matrix(0.01953125,0,0,0.01953125,0,0)" xlink:href="#bh"/><use transform="matrix(0.01953125,0,0,0.01953125,24.4921875,0)" xlink:href="#aR"/><use transform="matrix(0.01953125,0,0,0.01953125,38.88671875,0)" xlink:href="#aU"/><use transform="matrix(0.01953125,0,0,0.01953125,62.87109375,0)" xlink:href="#aF"/><use transform="matrix(0.01953125,0,0,0.01953125,87.36328125,0)" xlink:href="#aP"/><use transform="matrix(0.01953125,0,0,0.01953125,111.015625,0)" xlink:href="#bd"/><use transform="matrix(0.01953125,0,0,0.01953125,133.8671875,0)" xlink:href="#aH"/><use transform="matrix(0.01953125,0,0,0.01953125,146.953125,0)" xlink:href="#aJ"/><use transform="matrix(0.01953125,0,0,0.01953125,166.54296875,0)" xlink:href="#bf"/><use transform="matrix(0.01953125,0,0,0.01953125,176.23046875,0)" xlink:href="#aF"/></g><g id="ak"><use transform="matrix(0.01953125,0,0,0.01953125,0,0)" xlink:href="#bh"/><use transform="matrix(0.01953125,0,0,0.01953125,24.4921875,0)" xlink:href="#aR"/><use transform="matrix(0.01953125,0,0,0.01953125,38.88671875,0)" xlink:href="#aU"/><use transform="matrix(0.01953125,0,0,0.01953125,62.87109375,0)" xlink:href="#aF"/><use transform="matrix(0.01953125,0,0,0.01953125,87.36328125,0)" xlink:href="#aP"/><use transform="matrix(0.01953125,0,0,0.01953125,111.015625,0)" xlink:href="#bd"/><use transform="matrix(0.01953125,0,0,0.01953125,133.8671875,0)" xlink:href="#aH"/><use transform="matrix(0.01953125,0,0,0.01953125,146.953125,0)" xlink:href="#aJ"/><use transform="matrix(0.01953125,0,0,0.01953125,166.54296875,0)" xlink:href="#aV"/><use transform="matrix(0.01953125,0,0,0.01953125,190.17578125,0)" xlink:href="#aG"/><use transform="matrix(0.01953125,0,0,0.01953125,212.63671875,0)" xlink:href="#aT"/><use transform="matrix(0.01953125,0,0,0.01953125,247.67578125,0)" xlink:href="#aI"/></g><g id="al"><use transform="matrix(0.01953125,0,0,0.01953125,0,0)" xlink:href="#aF"/><use transform="matrix(0.01953125,0,0,0.01953125,24.4921875,0)" xlink:href="#aI"/><use transform="matrix(0.01953125,0,0,0.01953125,47.8125,0)" xlink:href="#be"/><use transform="matrix(0.01953125,0,0,0.01953125,68.92578125,0)" xlink:href="#bd"/><use transform="matrix(0.01953125,0,0,0.01953125,91.77734375,0)" xlink:href="#aR"/><use transform="matrix(0.01953125,0,0,0.01953125,107.4609375,0)" xlink:href="#bf"/><use transform="matrix(0.01953125,0,0,0.01953125,117.1484375,0)" xlink:href="#bh"/><use transform="matrix(0.01953125,0,0,0.01953125,141.640625,0)" xlink:href="#aH"/><use transform="matrix(0.01953125,0,0,0.01953125,154.7265625,0)" xlink:href="#bf"/><use transform="matrix(0.01953125,0,0,0.01953125,164.4140625,0)" xlink:href="#aU"/><use transform="matrix(0.01953125,0,0,0.01953125,188.3984375,0)" xlink:href="#aV"/></g><g id="am"><use transform="matrix(0.01953125,0,0,0.01953125,0,0)" xlink:href="#bt"/><use transform="matrix(0.01953125,0,0,0.01953125,24.4921875,0)" xlink:href="#aR"/><use transform="matrix(0.01953125,0,0,0.01953125,39.55078125,0)" xlink:href="#aG"/><use transform="matrix(0.01953125,0,0,0.01953125,62.01171875,0)" xlink:href="#aV"/><use transform="matrix(0.01953125,0,0,0.01953125,85.64453125,0)" xlink:href="#aF"/><use transform="matrix(0.01953125,0,0,0.01953125,110.13671875,0)" xlink:href="#aJ"/><use transform="matrix(0.01953125,0,0,0.01953125,129.7265625,0)" xlink:href="#aV"/><use transform="matrix(0.01953125,0,0,0.01953125,153.359375,0)" xlink:href="#aG"/><use transform="matrix(0.01953125,0,0,0.01953125,175.8203125,0)" xlink:href="#aT"/><use transform="matrix(0.01953125,0,0,0.01953125,210.859375,0)" xlink:href="#aI"/></g><g id="an"><use transform="matrix(0.01953125,0,0,0.01953125,0,0)" xlink:href="#bd"/><use transform="matrix(0.01953125,0,0,0.01953125,23.2421875,0)" xlink:href="#aG"/><use transform="matrix(0.01953125,0,0,0.01953125,45.703125,0)" xlink:href="#aH"/><use transform="matrix(0.01953125,0,0,0.01953125,58.3984375,0)" xlink:href="#aI"/><use transform="matrix(0.01953125,0,0,0.01953125,81.71875,0)" xlink:href="#bg"/><use transform="matrix(0.01953125,0,0,0.01953125,106.25,0)" xlink:href="#aU"/><use transform="matrix(0.01953125,0,0,0.01953125,130.234375,0)" xlink:href="#aR"/><use transform="matrix(0.01953125,0,0,0.01953125,145.91796875,0)" xlink:href="#aL"/></g><g id="ao"><use transform="matrix(0.01953125,0,0,0.01953125,0,0)" xlink:href="#be"/><use transform="matrix(0.01953125,0,0,0.01953125,21.11328125,0)" xlink:href="#aP"/><use transform="matrix(0.01953125,0,0,0.01953125,44.765625,0)" xlink:href="#bt"/><use transform="matrix(0.01953125,0,0,0.01953125,69.2578125,0)" xlink:href="#bd"/><use transform="matrix(0.01953125,0,0,0.01953125,92.5,0)" xlink:href="#aG"/><use transform="matrix(0.01953125,0,0,0.01953125,114.9609375,0)" xlink:href="#aH"/><use transform="matrix(0.01953125,0,0,0.01953125,127.65625,0)" xlink:href="#aI"/><use transform="matrix(0.01953125,0,0,0.01953125,150.9765625,0)" xlink:href="#bg"/><use transform="matrix(0.01953125,0,0,0.01953125,175.5078125,0)" xlink:href="#aU"/><use transform="matrix(0.01953125,0,0,0.01953125,199.4921875,0)" xlink:href="#aR"/><use transform="matrix(0.01953125,0,0,0.01953125,215.17578125,0)" xlink:href="#aL"/></g><g id="ap"><use transform="matrix(0.01953125,0,0,0.01953125,0,0)" xlink:href="#aQ"/><use transform="matrix(0.01953125,0,0,0.01953125,9.6875,0)" xlink:href="#bf"/><use transform="matrix(0.01953125,0,0,0.01953125,19.375,0)" xlink:href="#be"/><use transform="matrix(0.01953125,0,0,0.01953125,40.48828125,0)" xlink:href="#aH"/><use transform="matrix(0.01953125,0,0,0.01953125,53.57421875,0)" xlink:href="#aJ"/><use transform="matrix(0.01953125,0,0,0.01953125,73.1640625,0)" xlink:href="#bh"/><use transform="matrix(0.01953125,0,0,0.01953125,97.65625,0)" xlink:href="#aR"/><use transform="matrix(0.01953125,0,0,0.01953125,113.33984375,0)" xlink:href="#bf"/><use transform="matrix(0.01953125,0,0,0.01953125,123.02734375,0)" xlink:href="#bd"/><use transform="matrix(0.01953125,0,0,0.01953125,145.87890625,0)" xlink:href="#aI"/></g><g id="aq"><use transform="matrix(0.01953125,0,0,0.01953125,0,0)" xlink:href="#bl"/><use transform="matrix(0.01953125,0,0,0.01953125,15.13671875,0)" xlink:href="#aC"/><use transform="matrix(0.01953125,0,0,0.01953125,38.359375,0)" xlink:href="#aY"/><use transform="matrix(0.01953125,0,0,0.01953125,61.89453125,0)" xlink:href="#aD"/><use transform="matrix(0.01953125,0,0,0.01953125,76.54296875,0)" xlink:href="#aB"/><use transform="matrix(0.01953125,0,0,0.01953125,95.5859375,0)" xlink:href="#ba"/><use transform="matrix(0.01953125,0,0,0.01953125,117.98828125,0)" xlink:href="#aE"/><use transform="matrix(0.01953125,0,0,0.01953125,141.81640625,0)" xlink:href="#ba"/><use transform="matrix(0.01953125,0,0,0.01953125,164.21875,0)" xlink:href="#ba"/><use transform="matrix(0.01953125,0,0,0.01953125,186.62109375,0)" xlink:href="#az"/><use transform="matrix(0.01953125,0,0,0.01953125,197.4609375,0)" xlink:href="#bb"/><use transform="matrix(0.01953125,0,0,0.01953125,221.9921875,0)" xlink:href="#bm"/><use transform="matrix(0.01953125,0,0,0.01953125,246.89453125,0)" xlink:href="#ba"/></g><g id="ar"><use transform="matrix(0.01953125,0,0,0.01953125,0,0)" xlink:href="#be"/><use transform="matrix(0.01953125,0,0,0.01953125,21.11328125,0)" xlink:href="#aH"/><use transform="matrix(0.01953125,0,0,0.01953125,34.39453125,0)" xlink:href="#aG"/><use transform="matrix(0.01953125,0,0,0.01953125,56.85546875,0)" xlink:href="#aR"/><use transform="matrix(0.01953125,0,0,0.01953125,72.5390625,0)" xlink:href="#aH"/><use transform="matrix(0.01953125,0,0,0.01953125,85.625,0)" xlink:href="#aJ"/><use transform="matrix(0.01953125,0,0,0.01953125,103.8671875,0)" xlink:href="#aF"/><use transform="matrix(0.01953125,0,0,0.01953125,128.359375,0)" xlink:href="#aG"/><use transform="matrix(0.01953125,0,0,0.01953125,150.8203125,0)" xlink:href="#aH"/><use transform="matrix(0.01953125,0,0,0.01953125,163.515625,0)" xlink:href="#aI"/><use transform="matrix(0.01953125,0,0,0.01953125,186.8359375,0)" xlink:href="#aJ"/><use transform="matrix(0.01953125,0,0,0.01953125,206.42578125,0)" xlink:href="#aK"/><use transform="matrix(0.01953125,0,0,0.01953125,227.48046875,0)" xlink:href="#aI"/><use transform="matrix(0.01953125,0,0,0.01953125,250.01953125,0)" xlink:href="#aL"/></g><g id="as"><use transform="matrix(0.01953125,0,0,0.01953125,0,0)" xlink:href="#be"/><use transform="matrix(0.01953125,0,0,0.01953125,21.11328125,0)" xlink:href="#aH"/><use transform="matrix(0.01953125,0,0,0.01953125,34.39453125,0)" xlink:href="#aG"/><use transform="matrix(0.01953125,0,0,0.01953125,56.85546875,0)" xlink:href="#aR"/><use transform="matrix(0.01953125,0,0,0.01953125,72.5390625,0)" xlink:href="#aH"/><use transform="matrix(0.01953125,0,0,0.01953125,85.625,0)" xlink:href="#aJ"/><use transform="matrix(0.01953125,0,0,0.01953125,103.8671875,0)" xlink:href="#aH"/><use transform="matrix(0.01953125,0,0,0.01953125,116.953125,0)" xlink:href="#bf"/><use transform="matrix(0.01953125,0,0,0.01953125,126.640625,0)" xlink:href="#aT"/><use transform="matrix(0.01953125,0,0,0.01953125,161.6796875,0)" xlink:href="#aI"/><use transform="matrix(0.01953125,0,0,0.01953125,185,0)" xlink:href="#aJ"/><use transform="matrix(0.01953125,0,0,0.01953125,204.58984375,0)" xlink:href="#aK"/><use transform="matrix(0.01953125,0,0,0.01953125,225.64453125,0)" xlink:href="#aI"/><use transform="matrix(0.01953125,0,0,0.01953125,248.18359375,0)" xlink:href="#aL"/></g><g id="at"><use transform="matrix(0.01953125,0,0,0.01953125,0,0)" xlink:href="#aH"/><use transform="matrix(0.01953125,0,0,0.01953125,12.6953125,0)" xlink:href="#aU"/><use transform="matrix(0.01953125,0,0,0.01953125,36.6796875,0)" xlink:href="#aH"/><use transform="matrix(0.01953125,0,0,0.01953125,49.9609375,0)" xlink:href="#aG"/><use transform="matrix(0.01953125,0,0,0.01953125,72.421875,0)" xlink:href="#aQ"/><use transform="matrix(0.01953125,0,0,0.01953125,82.109375,0)" xlink:href="#aJ"/><use transform="matrix(0.01953125,0,0,0.01953125,101.69921875,0)" xlink:href="#bh"/><use transform="matrix(0.01953125,0,0,0.01953125,126.58203125,0)" xlink:href="#aG"/><use transform="matrix(0.01953125,0,0,0.01953125,149.04296875,0)" xlink:href="#bg"/><use transform="matrix(0.01953125,0,0,0.01953125,173.57421875,0)" xlink:href="#aI"/><use transform="matrix(0.01953125,0,0,0.01953125,196.11328125,0)" xlink:href="#bu"/><use transform="matrix(0.01953125,0,0,0.01953125,218.59375,0)" xlink:href="#bf"/><use transform="matrix(0.01953125,0,0,0.01953125,228.28125,0)" xlink:href="#aI"/><use transform="matrix(0.01953125,0,0,0.01953125,250.87890625,0)" xlink:href="#aX"/><use transform="matrix(0.01953125,0,0,0.01953125,283.61328125,0)" xlink:href="#be"/></g><g id="au"><use transform="matrix(0.01953125,0,0,0.01953125,0,0)" xlink:href="#aF"/><use transform="matrix(0.01953125,0,0,0.01953125,24.4921875,0)" xlink:href="#aP"/><use transform="matrix(0.01953125,0,0,0.01953125,48.14453125,0)" xlink:href="#aR"/><use transform="matrix(0.01953125,0,0,0.01953125,63.203125,0)" xlink:href="#aG"/><use transform="matrix(0.01953125,0,0,0.01953125,85.6640625,0)" xlink:href="#bd"/><use transform="matrix(0.01953125,0,0,0.01953125,108.515625,0)" xlink:href="#aH"/><use transform="matrix(0.01953125,0,0,0.01953125,121.6015625,0)" xlink:href="#bf"/><use transform="matrix(0.01953125,0,0,0.01953125,131.2890625,0)" xlink:href="#aU"/><use transform="matrix(0.01953125,0,0,0.01953125,155.2734375,0)" xlink:href="#aV"/><use transform="matrix(0.01953125,0,0,0.01953125,178.90625,0)" xlink:href="#aJ"/><use transform="matrix(0.01953125,0,0,0.01953125,197.1484375,0)" xlink:href="#be"/><use transform="matrix(0.01953125,0,0,0.01953125,218.26171875,0)" xlink:href="#aI"/><use transform="matrix(0.01953125,0,0,0.01953125,241.58203125,0)" xlink:href="#bd"/><use transform="matrix(0.01953125,0,0,0.01953125,264.43359375,0)" xlink:href="#aU"/><use transform="matrix(0.01953125,0,0,0.01953125,288.41796875,0)" xlink:href="#aV"/><use transform="matrix(0.01953125,0,0,0.01953125,312.05078125,0)" xlink:href="#aF"/><use transform="matrix(0.01953125,0,0,0.01953125,336.54296875,0)" xlink:href="#be"/></g><g id="av"><use transform="matrix(0.01953125,0,0,0.01953125,0,0)" xlink:href="#aR"/><use transform="matrix(0.01953125,0,0,0.01953125,14.39453125,0)" xlink:href="#aI"/><use transform="matrix(0.01953125,0,0,0.01953125,37.71484375,0)" xlink:href="#be"/><use transform="matrix(0.01953125,0,0,0.01953125,58.828125,0)" xlink:href="#aP"/><use transform="matrix(0.01953125,0,0,0.01953125,82.48046875,0)" xlink:href="#aQ"/><use transform="matrix(0.01953125,0,0,0.01953125,92.75390625,0)" xlink:href="#aH"/><use transform="matrix(0.01953125,0,0,0.01953125,105.44921875,0)" xlink:href="#aI"/><use transform="matrix(0.01953125,0,0,0.01953125,128.76953125,0)" xlink:href="#aF"/><use transform="matrix(0.01953125,0,0,0.01953125,153.26171875,0)" xlink:href="#aJ"/><use transform="matrix(0.01953125,0,0,0.01953125,172.8515625,0)" xlink:href="#bf"/><use transform="matrix(0.01953125,0,0,0.01953125,182.5390625,0)" xlink:href="#aV"/><use transform="matrix(0.01953125,0,0,0.01953125,206.171875,0)" xlink:href="#aJ"/><use transform="matrix(0.01953125,0,0,0.01953125,224.4140625,0)" xlink:href="#be"/><use transform="matrix(0.01953125,0,0,0.01953125,245.52734375,0)" xlink:href="#aG"/><use transform="matrix(0.01953125,0,0,0.01953125,267.98828125,0)" xlink:href="#aQ"/><use transform="matrix(0.01953125,0,0,0.01953125,277.67578125,0)" xlink:href="#aI"/></g><path d="M449 0L49-1490h333c89 395 194 758 253 1185 65-426 176-790 269-1185h317c93 394 201 758 268 1181 60-425 164-788 253-1181h334L1675 0h-348c-90-376-204-711-266-1118C1004-714 886-373 798 0H449" id="bw"/><g id="aw"><use transform="matrix(0.043402777777777776,0,0,0.043402777777777776,0,0)" xlink:href="#bw"/><use transform="matrix(0.043402777777777776,0,0,0.043402777777777776,87.109375,0)" xlink:href="#aC"/><use transform="matrix(0.043402777777777776,0,0,0.043402777777777776,138.71527777777777,0)" xlink:href="#bc"/><use transform="matrix(0.043402777777777776,0,0,0.043402777777777776,174.91319444444443,0)" xlink:href="#ba"/><use transform="matrix(0.043402777777777776,0,0,0.043402777777777776,224.69618055555554,0)" xlink:href="#aD"/><use transform="matrix(0.043402777777777776,0,0,0.043402777777777776,259.02777777777777,0)" xlink:href="#bp"/><use transform="matrix(0.043402777777777776,0,0,0.043402777777777776,334.375,0)" xlink:href="#aC"/></g><path d="M795 20C377 20 94-272 94-743c0-483 302-767 694-767 335 0 593 206 635 500h-310c-42-142-154-229-320-229-230 0-389 177-389 493s154 495 393 495c212 0 340-120 345-311H818v-232h620v186c0 391-269 628-643 628" id="bx"/><g id="ax"><use transform="matrix(0.043402777777777776,0,0,0.043402777777777776,0,0)" xlink:href="#bx"/><use transform="matrix(0.043402777777777776,0,0,0.043402777777777776,66.71006944444444,0)" xlink:href="#bb"/><use transform="matrix(0.043402777777777776,0,0,0.043402777777777776,121.22395833333333,0)" xlink:href="#bn"/><use transform="matrix(0.043402777777777776,0,0,0.043402777777777776,145.3125,0)" xlink:href="#ay"/></g></defs></g></svg>